<svg width="176" height="175" viewBox="0 0 176 175" fill="none" xmlns="http://www.w3.org/2000/svg">
<path fill-rule="evenodd" clip-rule="evenodd" d="M88 174C135.773 174 174.5 135.273 174.5 87.5C174.5 39.7274 135.773 1 88 1C40.2274 1 1.5 39.7274 1.5 87.5C1.5 135.273 40.2274 174 88 174ZM88 175C136.325 175 175.5 135.825 175.5 87.5C175.5 39.1751 136.325 0 88 0C39.6751 0 0.5 39.1751 0.5 87.5C0.5 135.825 39.6751 175 88 175Z" fill="black"/>
<mask id="mask0_604_599" style="mask-type:alpha" maskUnits="userSpaceOnUse" x="0" y="0" width="176" height="175">
<path d="M175.5 87.5C175.5 135.825 136.325 175 88 175C39.6751 175 0.5 135.825 0.5 87.5C0.5 39.1751 39.6751 0 88 0C136.325 0 175.5 39.1751 175.5 87.5Z" fill="#D9D9D9"/>
</mask>
<g mask="url(#mask0_604_599)">
<path d="M72.8187 94.4561C81.6422 102.833 91.7322 112.577 90.8731 124.714C90.6221 128.252 89.2928 131.845 86.6075 134.163C82.812 137.439 76.8848 137.789 73.7406 141.692C70.904 145.213 71.4987 150.67 74.2416 154.264C76.9856 157.856 81.4015 159.82 85.8286 160.735C95.9485 162.826 106.985 159.866 114.702 152.993C115.921 151.908 117.088 150.69 117.695 149.176C118.761 146.515 117.918 143.51 117.013 140.791C113.975 131.651 110.265 122.071 112.341 112.667C114.673 102.109 123.739 94.4037 128.075 84.4989C132.107 75.2855 131.679 64.2376 126.947 55.3637C125.17 52.0312 122.696 48.8994 119.277 47.2995C116.05 45.7891 112.345 45.7943 108.784 45.9034C95.1789 46.3211 70.7713 44.8467 61.1669 56.7516C50.8948 69.4827 63.4726 85.5812 72.8187 94.4561Z" fill="#FFE7FB"/>
<path d="M59.5603 163.678C58.1991 161.672 56.6908 159.676 54.6136 158.424C49.9539 155.617 43.6264 157.442 39.6797 161.187C35.732 164.932 33.6125 170.158 31.6052 175.216C30.5414 177.893 29.4786 180.572 28.4158 183.25C27.0659 186.65 25.7027 190.107 25.3621 193.749C25.0226 197.391 25.8406 201.309 28.3643 203.957C30.527 206.228 33.6527 207.305 36.7176 207.971C43.8517 209.518 51.2389 209.257 58.5356 208.988C84.4988 208.03 68.3231 176.591 59.5603 163.678Z" fill="#6987FF"/>
<path d="M113.173 181.792C113.95 177.471 114.193 173.065 115.04 168.756C115.954 164.103 117.573 159.587 119.823 155.413C121.058 153.123 122.661 150.788 125.118 149.935C127.517 149.103 130.212 149.901 132.361 151.252C138.858 155.335 141.269 163.476 143.18 170.906C145.492 179.895 147.804 188.882 150.116 197.869C150.583 199.683 150.837 202.055 149.224 203.006C148.594 203.375 147.829 203.406 147.098 203.426C136.359 203.708 123.541 205.211 112.975 203.071C106.253 201.709 107.372 202.405 109.091 195.828C110.329 191.092 112.299 186.658 113.173 181.792Z" fill="#6987FF"/>
<path d="M80.578 191.098C81.7334 194.042 83.037 197.173 85.6832 198.903C89.3428 201.298 94.5293 200.057 97.6961 197.041C100.863 194.023 102.371 189.665 103.253 185.381C104.135 181.097 104.506 176.686 105.923 172.548C107.318 168.468 109.723 164.657 110.113 160.362C110.219 159.205 109.988 157.76 108.892 157.373C108.412 157.205 107.883 157.296 107.385 157.403C103.253 158.297 99.3474 160.211 95.1415 160.643C87.8736 161.389 76.013 152.687 72.3091 161.068C68.8881 168.808 77.8124 184.056 80.578 191.098Z" fill="#DAC8FF"/>
<path d="M76.0886 90.6711C73.5874 90.6948 71.0873 90.7195 68.5851 90.7442C67.867 90.7514 67.0511 90.8018 66.5912 91.3533C66.0233 92.0323 66.3597 93.1383 67.0532 93.6878C67.7476 94.2361 68.6695 94.376 69.5461 94.4964C70.6737 94.6518 71.8003 94.8061 72.9279 94.9625C74.5175 95.1806 76.3201 95.3421 77.5444 94.3071C78.7688 93.2711 78.3089 90.6485 76.71 90.7709" fill="#F03FA3"/>
<path d="M111.256 91.927C108.755 91.9507 106.254 91.9753 103.754 92C103.035 92.0072 102.219 92.0577 101.758 92.6102C101.191 93.2892 101.526 94.3942 102.221 94.9426C102.914 95.491 103.837 95.6309 104.714 95.7512C105.84 95.9076 106.968 96.062 108.095 96.2184C109.684 96.4365 111.487 96.598 112.712 95.563C113.936 94.5269 113.476 91.9043 111.878 92.0257" fill="#F03FA3"/>
<path fill-rule="evenodd" clip-rule="evenodd" d="M78.4316 113.275L78.4315 113.276L77.0118 128.182L76.4433 134.199L56.1203 146.944C56.1203 146.944 56.1203 146.944 56.1203 146.944C45.3592 153.694 37.7746 164.486 35.0767 176.896L29.9015 200.694L28.9244 200.481L34.0995 176.684C36.8546 164.01 44.6 152.99 55.5889 146.096L75.4942 133.614L76.0163 128.088L77.4361 113.18L77.4362 113.179L77.4774 112.757L78.4726 112.854L78.4316 113.275Z" fill="black"/>
<path d="M142.618 97.9249C140.044 88.9142 131.158 43.4994 131.158 43.4994L111.602 42.486C120.291 50.1067 122.7 60.3232 122.7 60.3232C122.298 72.5656 120.405 82.2986 117.73 90.0459H117.72C114.633 99.0073 110.467 105.305 106.3 109.708C104.931 111.159 103.553 112.404 102.215 113.463C99.6326 115.532 97.184 116.94 95.1571 117.876C91.8545 119.43 89.6219 119.77 89.6219 119.77C83.243 117.384 78.109 113.854 73.973 109.708C55.8342 91.476 56.8528 61.0949 56.4001 60.3232C56.4001 60.3232 55.9896 47.8432 67.0107 40.1741L49.1014 39.2461C49.1014 39.2461 44.238 66.91 41.1781 87.1692C38.1183 107.428 41.6545 120.772 55.1881 122.188C68.7217 123.604 120.052 122.188 120.052 122.188C120.052 122.188 149.55 122.188 142.618 97.9249Z" fill="black"/>
<path fill-rule="evenodd" clip-rule="evenodd" d="M101.718 113.516L101.698 113.347L102.691 113.23L102.713 113.416L104.624 133.614L111.042 137.646H111.419V137.879L124.529 146.097C135.518 152.991 143.263 164.011 146.018 176.684L151.193 200.482L150.216 200.694L148.262 191.722L145.041 176.897C145.041 176.897 145.041 176.897 145.041 176.897C142.343 164.487 134.759 153.695 123.998 146.944C123.998 146.944 123.998 146.944 123.998 146.944L110.759 138.646H110.754L103.675 134.199L101.718 113.516Z" fill="black"/>
<path fill-rule="evenodd" clip-rule="evenodd" d="M69.1055 69.0235L68.783 68.077C68.2602 68.2551 67.9808 68.8233 68.1589 69.3461C68.337 69.8687 68.9049 70.148 69.4275 69.9703C69.4271 69.9704 69.4276 69.9702 69.4275 69.9703L69.4359 69.9675L69.4768 69.9542C69.5149 69.9421 69.5743 69.9236 69.6536 69.9002C69.8122 69.8534 70.05 69.787 70.3556 69.7126C70.9674 69.5637 71.8472 69.3837 72.9043 69.2636C75.0277 69.0225 77.8162 69.029 80.5789 69.9701C81.1017 70.1482 81.6698 69.8688 81.8479 69.346C82.026 68.8232 81.7466 68.255 81.2238 68.077C78.0881 67.0087 74.9786 67.0152 72.6787 67.2764C71.5242 67.4075 70.5609 67.6043 69.8827 67.7693C69.5432 67.8519 69.2742 67.9269 69.0872 67.9821C68.9937 68.0097 68.9207 68.0324 68.8695 68.0487C68.8439 68.0568 68.8238 68.0634 68.8093 68.0682L68.7918 68.074L68.7863 68.0758L68.7844 68.0765C68.7841 68.0766 68.783 68.077 69.1055 69.0235Z" fill="black"/>
<path d="M76.8911 77.8701C76.8911 79.5317 76.0454 80.8775 75.0032 80.8775C73.962 80.8775 73.1162 79.5317 73.1162 77.8701C73.1162 76.2085 73.962 74.8628 75.0032 74.8628C76.0454 74.8628 76.8911 76.2085 76.8911 77.8701Z" fill="black"/>
<path fill-rule="evenodd" clip-rule="evenodd" d="M111.062 68.0765C111.062 68.0766 111.063 68.0767 110.744 69.0122L111.062 68.0765C111.585 68.2546 111.865 68.823 111.687 69.3458C111.509 69.8682 110.941 70.1476 110.419 69.9703C110.419 69.9702 110.419 69.9703 110.419 69.9703L110.418 69.9699L110.41 69.9673L110.369 69.954C110.331 69.9419 110.271 69.9234 110.192 69.9C110.034 69.8531 109.796 69.7867 109.49 69.7124C108.878 69.5635 107.998 69.3835 106.941 69.2634C104.818 69.0223 102.029 69.0287 99.267 69.9699C98.7442 70.148 98.176 69.8686 97.9979 69.3458C97.8198 68.823 98.0992 68.2548 98.6219 68.0767C101.757 67.0085 104.867 67.015 107.167 67.2762C108.321 67.4073 109.285 67.604 109.963 67.7691C110.302 67.8517 110.572 67.9266 110.758 67.9818C110.852 68.0094 110.925 68.0321 110.976 68.0484C111.002 68.0566 111.022 68.0631 111.036 68.0679L111.054 68.0737L111.059 68.0756L111.062 68.0765Z" fill="black"/>
<path d="M102.954 77.8704C102.954 79.532 103.799 80.8777 104.841 80.8777C105.883 80.8777 106.729 79.532 106.729 77.8704C106.729 76.2088 105.883 74.863 104.841 74.863C103.799 74.863 102.954 76.2088 102.954 77.8704Z" fill="black"/>
<path fill-rule="evenodd" clip-rule="evenodd" d="M88.1404 78.0675C88.1403 78.0675 88.145 78.0844 88.1564 78.1092L89.0655 77.6926C89.0995 77.7669 89.1175 77.8508 89.1268 77.8971C89.1393 77.959 89.1512 78.0331 89.1617 78.1166C89.183 78.2843 89.2011 78.5038 89.2082 78.7638C89.2225 79.2839 89.1933 79.9783 89.0518 80.7572C88.7769 82.2708 88.0725 84.1292 86.414 85.6268C86.411 85.6753 86.4098 85.7342 86.4131 85.8009C86.4234 86.0092 86.4767 86.2832 86.6462 86.5579C86.9684 87.08 87.8311 87.7832 90.2205 87.815L90.2072 88.8149C87.6427 88.7808 86.37 88.0144 85.7953 87.0831C85.5164 86.6313 85.4308 86.1828 85.4144 85.8502C85.4061 85.6837 85.4151 85.5436 85.4267 85.4423C85.4325 85.3915 85.439 85.3499 85.4445 85.3192C85.4473 85.3038 85.4499 85.291 85.4519 85.2811L85.4547 85.2683L85.4558 85.2635L85.4562 85.2616L85.4565 85.2607C85.4566 85.2603 85.4566 85.2599 85.9431 85.3755L85.4566 85.2599L85.4941 85.1024L85.6167 84.9967C87.157 83.6695 87.8128 81.983 88.0679 80.5785C88.1954 79.8767 88.2213 79.2522 88.2086 78.7913C88.2023 78.5608 88.1864 78.3743 88.1697 78.2424C88.1613 78.1761 88.1531 78.1271 88.1466 78.0952C88.1427 78.0756 88.1404 78.0674 88.1404 78.0675Z" fill="black"/>
<path fill-rule="evenodd" clip-rule="evenodd" d="M82.6719 97.7645C82.6717 97.7645 82.6716 97.7644 82.8289 97.2898C82.9863 96.8152 82.9862 96.8152 82.9861 96.8152L82.9904 96.8166L83.0064 96.8218C83.021 96.8265 83.0434 96.8336 83.0733 96.843C83.133 96.8617 83.2226 96.8891 83.3396 96.9234C83.5735 96.9919 83.9169 97.0876 84.3497 97.1946C85.216 97.4087 86.4379 97.6675 87.8575 97.8459C90.7092 98.2041 94.3015 98.2297 97.4102 96.9685L97.7861 97.8951C94.4459 99.2503 90.6536 99.2049 87.7329 98.8381C86.2663 98.6538 85.0051 98.3867 84.1098 98.1653C83.6618 98.0546 83.3047 97.9552 83.0585 97.8831C82.9354 97.847 82.8399 97.8178 82.7746 97.7973C82.7419 97.7871 82.7168 97.7791 82.6996 97.7735L82.6796 97.7671L82.6741 97.7652L82.6719 97.7645Z" fill="black"/>
<path fill-rule="evenodd" clip-rule="evenodd" d="M57.8211 71.5049C57.8213 71.5051 57.8214 71.5052 57.4299 71.8163C57.0385 72.1275 57.0386 72.1275 57.0386 72.1275L57.0379 72.1266L57.0347 72.1227L57.021 72.1057C57.0087 72.0904 56.9899 72.0673 56.9651 72.0371C56.9155 71.9766 56.8415 71.8876 56.7457 71.7753C56.5541 71.5505 56.2756 71.2327 55.9302 70.8634C55.2376 70.1229 54.2839 69.184 53.2278 68.3725C52.1634 67.5544 51.0371 66.8989 49.9971 66.6741C48.9914 66.4568 48.0897 66.6412 47.3423 67.4875M57.8211 71.5049L57.8195 71.5029ZM57.8195 71.5029L57.8152 71.4975ZM57.8152 71.4975L57.799 71.4774ZM57.799 71.4774C57.785 71.4601 57.7645 71.4349 57.7379 71.4024ZM57.7379 71.4024C57.6847 71.3376 57.6068 71.2439 57.5068 71.1266ZM57.5068 71.1266C57.3069 70.892 57.0181 70.5625 56.6605 70.1803ZM56.6605 70.1803C55.9472 69.4177 54.9522 68.4364 53.8372 67.5796ZM53.8372 67.5796C52.7306 66.7292 51.4636 65.968 50.2084 65.6967ZM50.2084 65.6967C48.919 65.418 47.6237 65.6581 46.5927 66.8257ZM46.5927 66.8257C46.0584 67.4309 45.7554 68.2847 45.6205 69.251ZM45.6205 69.251C45.4846 70.2238 45.5127 71.3557 45.6804 72.5668ZM45.6804 72.5668C46.0159 74.9894 46.9191 77.7896 48.2808 80.3835ZM48.2808 80.3835C49.6415 82.9756 51.4775 85.3945 53.7 87.0235ZM53.7 87.0235C55.9315 88.6591 58.5678 89.5064 61.4786 88.9003ZM61.4786 88.9003L61.2747 87.9213ZM61.2747 87.9213C58.6986 88.4577 56.3459 87.723 54.2912 86.217ZM54.2912 86.217C52.2277 84.7045 50.4805 82.4223 49.1662 79.9187ZM49.1662 79.9187C47.8529 77.417 46.9891 74.727 46.6709 72.4297ZM46.6709 72.4297C46.5118 71.2809 46.4913 70.2455 46.6109 69.3893ZM46.6109 69.3893C46.7313 68.5265 46.9877 67.8893 47.3423 67.4875Z" fill="black"/>
<path fill-rule="evenodd" clip-rule="evenodd" d="M51.4842 75.4665C51.4844 75.4665 51.4846 75.4665 51.4873 74.9665C51.4901 74.4666 51.4903 74.4666 51.4905 74.4666L51.4911 74.4666L51.4926 74.4666L51.497 74.4666L51.5114 74.4668C51.5234 74.4671 51.5404 74.4674 51.5619 74.4681C51.605 74.4695 51.6667 74.472 51.7448 74.4767C51.9011 74.4862 52.1238 74.5044 52.3967 74.5395C52.9417 74.6096 53.6922 74.7477 54.5166 75.021C56.1613 75.5663 58.143 76.6651 59.3314 78.8761L58.4506 79.3496C57.4259 77.4431 55.7058 76.4688 54.2019 75.9702C53.452 75.7216 52.7665 75.5953 52.2692 75.5313C52.0209 75.4994 51.8208 75.4831 51.6846 75.4749C51.6165 75.4708 51.5644 75.4687 51.5304 75.4676C51.5134 75.4671 51.5009 75.4668 51.4932 75.4667L51.4852 75.4665L51.4842 75.4665ZM51.484 75.4665C51.4839 75.4665 51.4839 75.4665 51.4839 75.4665L51.484 75.4665Z" fill="black"/>
<path fill-rule="evenodd" clip-rule="evenodd" d="M54.739 79.1524C54.739 79.1519 54.7391 79.1515 54.2412 79.105C53.7434 79.0585 53.7435 79.058 53.7435 79.0576L53.7436 79.0566L53.7438 79.0545L53.7443 79.0498L53.7456 79.0384C53.7467 79.03 53.7481 79.0197 53.7499 79.0078C53.7537 78.984 53.7592 78.9536 53.7675 78.9175C53.784 78.8453 53.8115 78.75 53.8571 78.6399C53.9487 78.4186 54.1127 78.1397 54.4026 77.8752C54.9908 77.3385 56.0139 76.9327 57.7629 77.0442L57.6993 78.0422C56.1241 77.9417 55.4023 78.3168 55.0766 78.6139C54.9095 78.7664 54.8244 78.9177 54.781 79.0224C54.7591 79.0753 54.7477 79.1168 54.7422 79.1409C54.7395 79.1529 54.7382 79.1603 54.7379 79.1624C54.7377 79.1634 54.7378 79.1631 54.738 79.1613L54.7385 79.1576L54.7388 79.1548L54.7389 79.1532L54.739 79.1524Z" fill="black"/>
<path d="M121.937 71.8165C121.937 71.8165 128.843 63.1288 132.398 67.1568C135.955 71.1848 128.963 90.696 117.99 88.4109" fill="#F7F6F2"/>
<path fill-rule="evenodd" clip-rule="evenodd" d="M128.069 74.4668C128.07 74.4668 128.07 74.4668 128.073 74.9668C128.075 75.4668 128.076 75.4668 128.076 75.4668L128.075 75.4668L128.067 75.4669C128.059 75.4671 128.047 75.4673 128.03 75.4679C127.996 75.4689 127.944 75.471 127.875 75.4752C127.739 75.4834 127.539 75.4996 127.291 75.5315C126.793 75.5955 126.108 75.7219 125.358 75.9705C123.854 76.469 122.134 77.4433 121.109 79.3498L120.229 78.8764C121.417 76.6653 123.399 75.5665 125.043 75.0213C125.868 74.748 126.618 74.6098 127.163 74.5397C127.436 74.5046 127.659 74.4864 127.815 74.477C127.893 74.4723 127.955 74.4697 127.998 74.4684C128.02 74.4677 128.037 74.4673 128.049 74.4671L128.063 74.4669L128.067 74.4668L128.069 74.4668L128.069 74.4668Z" fill="black"/>
<path fill-rule="evenodd" clip-rule="evenodd" d="M125.816 79.0576C125.816 79.058 125.816 79.0585 125.318 79.105C124.82 79.1515 124.82 79.1519 124.82 79.1524L124.82 79.1532L124.821 79.1548L124.821 79.1576L124.821 79.1613C124.821 79.1631 124.822 79.1634 124.821 79.1624C124.821 79.1603 124.82 79.1529 124.817 79.1409C124.812 79.1168 124.8 79.0753 124.778 79.0224C124.735 78.9177 124.65 78.7664 124.483 78.6139C124.157 78.3168 123.435 77.9417 121.86 78.0422L121.796 77.0442C123.545 76.9327 124.568 77.3385 125.157 77.8752C125.447 78.1397 125.611 78.4186 125.702 78.6399C125.748 78.75 125.775 78.8453 125.792 78.9175C125.8 78.9536 125.806 78.984 125.809 79.0078C125.811 79.0197 125.813 79.03 125.814 79.0384L125.815 79.0498L125.815 79.0545L125.816 79.0566L125.816 79.0576Z" fill="black"/>
<path fill-rule="evenodd" clip-rule="evenodd" d="M55.9352 60.501C55.9386 60.5123 55.9486 60.5413 55.9692 60.5763L56.8317 60.0703C56.8771 60.1478 56.8974 60.2258 56.9064 60.2624C56.9179 60.3097 56.9267 60.3599 56.9338 60.4081C56.9481 60.5052 56.9603 60.6264 56.9715 60.7644C56.9939 61.0418 57.0154 61.4238 57.0408 61.892C57.0445 61.9601 57.0482 62.03 57.0521 62.102C57.1018 63.0248 57.1687 64.2653 57.2849 65.7627C57.5354 68.9905 58.0151 73.408 59.0442 78.3665C61.1043 88.2934 65.3561 100.338 74.3275 109.356C78.3887 113.426 83.422 116.895 89.6704 119.254C89.7313 119.242 89.8142 119.226 89.9177 119.204C90.1681 119.15 90.5393 119.062 91.0133 118.926C91.9613 118.653 93.3198 118.189 94.9445 117.424L94.9478 117.423C96.9407 116.502 99.3543 115.114 101.903 113.073L101.905 113.071C103.224 112.027 104.585 110.798 105.936 109.365C110.052 105.016 114.183 98.7797 117.248 89.8832L117.364 89.546H117.373C119.969 81.9071 121.806 72.3292 122.2 60.3069L123.2 60.3397C122.797 72.6248 120.897 82.4082 118.203 90.2092L118.087 90.546H118.076C114.979 99.3936 110.828 105.651 106.663 110.052C105.278 111.52 103.882 112.781 102.526 113.854C99.9114 115.949 97.429 117.378 95.3691 118.33C93.6918 119.119 92.2831 119.601 91.2894 119.887C90.7924 120.029 90.399 120.123 90.1276 120.181C89.9919 120.21 89.8867 120.231 89.8142 120.244C89.7779 120.251 89.7499 120.255 89.7303 120.259L89.7073 120.262L89.7006 120.263L89.6985 120.264L89.6974 120.264C89.6973 120.264 89.6972 120.264 89.6222 119.77L89.6974 120.264L89.5687 120.283L89.4471 120.238C82.9966 117.825 77.8026 114.254 73.6194 110.062C64.4522 100.847 60.1434 88.5843 58.065 78.5697C57.0248 73.5574 56.5406 69.0954 56.2879 65.84C56.1707 64.3305 56.1033 63.0795 56.0536 62.1565C56.0497 62.0843 56.0459 62.0142 56.0422 61.9461C56.0167 61.4741 55.9959 61.1065 55.9747 60.8452C55.9641 60.7139 55.954 60.6184 55.9445 60.5541C55.9401 60.5241 55.9368 60.5077 55.9352 60.501ZM55.9349 60.4996C55.935 60.5 55.9351 60.5005 55.9352 60.501Z" fill="black"/>
<path d="M114.529 50.6227C114.529 50.6227 93.1109 71.6721 57.4312 73.8749C57.4312 73.8749 46.4275 62.2231 49.1015 41.3043C51.7755 20.3856 96.9197 -3.53429 122.707 29.3367C122.707 29.3367 143.547 45.0782 121.936 73.8749C121.936 73.8749 123.179 68.5526 114.529 50.6227Z" fill="black"/>
<path fill-rule="evenodd" clip-rule="evenodd" d="M91.3235 159.011C91.3232 159.011 91.3228 159.011 91.253 158.516L91.3235 159.011L91.2145 159.026L91.1097 158.995C84.3536 156.974 77.7692 152.466 72.8947 148.493C70.4524 146.502 68.4291 144.637 67.0159 143.269C66.3092 142.585 65.7547 142.025 65.3762 141.635C65.187 141.44 65.0417 141.288 64.9435 141.184C64.8944 141.132 64.857 141.092 64.8317 141.065L64.8029 141.034L64.7955 141.026L64.7935 141.024C64.7933 141.024 64.7926 141.023 65.1602 140.684L65.5277 140.345L65.5296 140.347L65.536 140.354L65.5627 140.382C65.5866 140.408 65.6225 140.446 65.6702 140.497C65.7655 140.598 65.9077 140.747 66.0936 140.938C66.4656 141.321 67.0128 141.874 67.7114 142.55C69.109 143.903 71.1109 145.749 73.5265 147.718C78.3409 151.642 84.7583 156.024 91.2873 158.004C91.2999 158.002 91.3137 158 91.3285 157.997C91.4291 157.979 91.5802 157.951 91.7771 157.909C92.1709 157.825 92.7475 157.686 93.4684 157.469C94.9105 157.034 96.9282 156.286 99.2156 155.034C103.787 152.533 109.441 148.017 113.733 139.957L114.615 140.427C110.219 148.683 104.413 153.33 99.6956 155.911C97.3387 157.201 95.2552 157.975 93.757 158.426C93.0078 158.652 92.4045 158.797 91.986 158.887C91.7768 158.932 91.6136 158.962 91.5015 158.982C91.4454 158.992 91.4021 158.999 91.3721 159.004L91.3373 159.009L91.3275 159.01L91.3245 159.011L91.3235 159.011Z" fill="black"/>
<path fill-rule="evenodd" clip-rule="evenodd" d="M91.0535 162.252C91.0532 162.252 91.053 162.252 90.9379 161.765L91.053 162.252L90.9336 162.28L90.8147 162.25C81.433 159.865 74.3246 154.915 69.5657 150.569C67.1854 148.395 65.3896 146.37 64.1874 144.885C63.5863 144.143 63.1332 143.536 62.8295 143.113C62.6777 142.901 62.5631 142.736 62.486 142.622C62.4475 142.565 62.4183 142.522 62.3985 142.492L62.3758 142.457L62.3697 142.448L62.368 142.445L62.3675 142.444C62.3673 142.444 62.3672 142.444 62.7874 142.173C63.2076 141.902 63.2075 141.902 63.2075 141.902L63.2076 141.902L63.2086 141.903L63.213 141.91L63.2325 141.94C63.2501 141.966 63.277 142.007 63.3132 142.06C63.3857 142.167 63.4953 142.325 63.642 142.53C63.9353 142.938 64.3765 143.53 64.9645 144.256C66.1407 145.708 67.9026 147.696 70.24 149.831C74.8959 154.082 81.822 158.905 90.94 161.25C90.9693 161.242 91.0038 161.234 91.0435 161.223C91.191 161.185 91.4095 161.127 91.6902 161.047C92.2517 160.887 93.062 160.641 94.0512 160.298C96.0305 159.613 98.7215 158.541 101.569 156.998C107.276 153.904 113.536 148.956 116.029 141.495L116.977 141.812C114.367 149.625 107.844 154.733 102.045 157.877C99.1387 159.452 96.3953 160.545 94.3785 161.243C93.3697 161.593 92.5415 161.844 91.964 162.009C91.6753 162.091 91.4492 162.151 91.2944 162.191C91.217 162.211 91.1575 162.226 91.1169 162.236L91.0703 162.248L91.058 162.251L91.0545 162.252L91.0535 162.252Z" fill="black"/>
<path fill-rule="evenodd" clip-rule="evenodd" d="M60.9187 143.199C60.9186 143.199 60.9186 143.199 61.3946 143.046C61.8705 142.892 61.8706 142.893 61.8707 142.893L61.9006 142.986L61.9884 143.262C62.0656 143.504 62.1792 143.863 62.3254 144.329C62.6179 145.26 63.0406 146.617 63.5621 148.326C64.605 151.743 66.043 156.563 67.6237 162.175C70.7841 173.398 74.5183 187.801 76.803 200.499L75.8188 200.676C73.5426 188.026 69.8186 173.658 66.6611 162.447C65.0828 156.842 63.6469 152.029 62.6056 148.618C62.085 146.912 61.6631 145.557 61.3714 144.628C61.2256 144.164 61.1123 143.806 61.0355 143.565L60.9482 143.291L60.9187 143.199Z" fill="black"/>
<path fill-rule="evenodd" clip-rule="evenodd" d="M50.3481 150.015C50.3482 150.015 50.3483 150.015 50.8284 150.154C51.3085 150.294 51.3086 150.294 51.3086 150.294L51.3082 150.295L51.3063 150.302L51.2982 150.33C51.291 150.356 51.2801 150.396 51.2662 150.449C51.2382 150.554 51.198 150.711 51.1494 150.915C51.0524 151.324 50.9226 151.92 50.7932 152.666C50.5343 154.158 50.2781 156.243 50.2882 158.612C50.3085 163.359 51.3973 169.182 55.6018 173.692C59.906 178.31 64.6689 182.497 68.3594 185.531C70.2038 187.048 71.7785 188.275 72.8915 189.122C73.448 189.546 73.889 189.875 74.1905 190.098C74.3412 190.209 74.457 190.294 74.535 190.35L74.6232 190.414L74.6452 190.43L74.6519 190.435L74.3604 190.841C74.0686 191.247 74.0685 191.247 74.0684 191.247L74.0604 191.241L74.0371 191.225L73.9464 191.159C73.8667 191.101 73.749 191.015 73.5964 190.902C73.2913 190.677 72.8463 190.345 72.2857 189.918C71.1644 189.064 69.5798 187.829 67.7243 186.303C64.015 183.254 59.2156 179.036 54.8703 174.374C50.4241 169.605 49.3091 163.488 49.2882 158.616C49.2778 156.175 49.5416 154.03 49.808 152.495C49.9412 151.727 50.0753 151.11 50.1765 150.684C50.2271 150.471 50.2696 150.305 50.2996 150.192C50.3146 150.136 50.3265 150.092 50.3348 150.062L50.3444 150.028L50.3471 150.019L50.3481 150.015Z" fill="black"/>
<path fill-rule="evenodd" clip-rule="evenodd" d="M118.258 142.893C118.258 142.893 118.258 142.892 118.734 143.046C119.21 143.199 119.21 143.199 119.21 143.199L119.18 143.291L119.093 143.565C119.016 143.806 118.903 144.164 118.757 144.628C118.465 145.557 118.043 146.912 117.523 148.618C116.481 152.029 115.045 156.842 113.467 162.447C110.309 173.658 106.585 188.026 104.31 200.676L103.325 200.499C105.61 187.801 109.344 173.398 112.504 162.175C114.085 156.563 115.523 151.743 116.566 148.326C117.088 146.617 117.51 145.26 117.803 144.329C117.949 143.863 118.063 143.504 118.14 143.262L118.228 142.986L118.258 142.893Z" fill="black"/>
<path fill-rule="evenodd" clip-rule="evenodd" d="M128.822 150.293C128.822 150.293 128.822 150.293 129.303 150.154C129.783 150.014 129.783 150.015 129.783 150.015L129.784 150.018L129.787 150.028L129.796 150.062C129.804 150.092 129.816 150.135 129.831 150.192C129.861 150.305 129.904 150.471 129.954 150.684C130.056 151.11 130.19 151.727 130.323 152.495C130.589 154.03 130.853 156.175 130.842 158.616C130.821 163.488 129.706 169.604 125.26 174.374C120.914 179.036 116.115 183.253 112.406 186.303C110.55 187.829 108.966 189.064 107.844 189.918C107.284 190.345 106.839 190.676 106.534 190.902C106.381 191.014 106.263 191.1 106.184 191.158L106.093 191.224L106.07 191.241L106.062 191.247C106.062 191.247 106.061 191.247 105.77 190.841C105.478 190.435 105.478 190.435 105.478 190.435L105.485 190.43L105.507 190.414L105.595 190.35C105.673 190.293 105.789 190.209 105.94 190.097C106.241 189.875 106.682 189.546 107.238 189.122C108.351 188.274 109.926 187.047 111.771 185.531C115.461 182.496 120.224 178.31 124.528 173.692C128.733 169.182 129.822 163.359 129.842 158.611C129.853 156.243 129.596 154.158 129.338 152.666C129.208 151.92 129.078 151.323 128.981 150.915C128.933 150.711 128.893 150.554 128.865 150.448C128.851 150.396 128.84 150.356 128.833 150.33L128.825 150.301L128.823 150.295L128.822 150.293Z" fill="black"/>
<path d="M102.781 119.452C95.7337 121.859 83.48 125.862 76.5147 128.136L77.9345 113.228C81.268 115.851 85.1365 118.093 89.6223 119.77C89.6223 119.77 91.8549 119.432 95.1576 117.877C97.1844 116.941 99.6331 115.532 102.216 113.463L102.781 119.452Z" fill="black"/>
</g>
</svg>
