<svg width="176" height="175" viewBox="0 0 176 175" fill="none" xmlns="http://www.w3.org/2000/svg">
<path fill-rule="evenodd" clip-rule="evenodd" d="M88 174C135.773 174 174.5 135.273 174.5 87.5C174.5 39.7274 135.773 1 88 1C40.2274 1 1.5 39.7274 1.5 87.5C1.5 135.273 40.2274 174 88 174ZM88 175C136.325 175 175.5 135.825 175.5 87.5C175.5 39.1751 136.325 0 88 0C39.6751 0 0.5 39.1751 0.5 87.5C0.5 135.825 39.6751 175 88 175Z" fill="black"/>
<mask id="mask0_604_637" style="mask-type:alpha" maskUnits="userSpaceOnUse" x="0" y="0" width="176" height="175">
<path d="M175.5 87.5C175.5 135.825 136.325 175 88 175C39.6751 175 0.5 135.825 0.5 87.5C0.5 39.1751 39.6751 0 88 0C136.325 0 175.5 39.1751 175.5 87.5Z" fill="#D9D9D9"/>
</mask>
<g mask="url(#mask0_604_637)">
<path d="M48.8501 97.6966C51.6687 102.47 55.6015 106.475 58.8861 110.941C64.4269 118.475 68.1015 127.369 69.4963 136.616C70.4466 142.912 70.844 150.272 76.0463 153.943C78.671 155.796 82.0167 156.251 85.2263 156.435C88.7616 156.639 92.6718 156.449 95.2815 154.054C98.639 150.973 98.4129 145.753 98.6925 141.205C99.3985 129.732 104.845 119.185 108.797 108.389C114.004 94.1667 116.702 79.0292 116.732 63.8831C116.744 57.7606 116.109 51.1056 111.955 46.6072C108.486 42.8502 103.231 41.361 98.1858 40.5244C84.0339 38.1771 64.2962 40.3337 57.2213 54.6774C51.4255 66.4296 41.8267 85.7998 48.8501 97.6966Z" fill="#FFE7FB"/>
<path d="M41.0847 185.001C44.5783 172.864 53.8547 161.526 66.3118 159.447C69.1133 158.98 72.084 159.009 74.6765 160.168C76.4238 160.949 77.9097 162.2 79.5135 163.245C83.4205 165.79 88.1118 167.112 92.7741 166.981C99.1515 166.804 105.423 163.996 111.729 164.974C119.873 166.238 125.757 173.448 129.505 180.788C136.197 193.901 138.647 209.137 136.403 223.687C136.142 225.358 65.925 223.351 59.3408 223.312C50.8197 223.262 43.2627 224.003 39.8645 215.012C36.6195 206.427 38.6572 193.438 41.0847 185.001Z" fill="#C3C62B"/>
<path d="M122.859 83.9242C120.006 89.7746 118.941 96.4831 119.839 102.931C124.123 104.243 128.577 101.657 132.084 98.8678C134.383 97.038 136.628 94.9961 137.91 92.3521C139.195 89.7082 139.33 86.3271 137.559 83.982C135.931 81.8266 133.025 80.9567 130.327 81.112C127.631 81.2674 125.072 82.2947 122.568 83.3082" fill="#FFE7FB"/>
<path d="M88.9909 102.752C89.3305 102.832 88.1606 107.182 83.2476 107.1C78.3346 107.019 74.7318 108.983 74.8143 117.582L72.6599 116.27C72.6599 116.27 68.1219 97.831 88.9909 102.752Z" fill="black"/>
<path d="M89.1006 102.752C88.7599 102.832 89.9298 107.182 94.8428 107.1C99.7558 107.019 103.359 108.983 103.277 117.582L105.432 116.27C105.432 116.27 109.969 97.831 89.1006 102.752Z" fill="black"/>
<path fill-rule="evenodd" clip-rule="evenodd" d="M121.139 93.542C121.137 93.5571 121.135 93.5719 121.132 93.5864C121.129 93.6015 121.125 93.6166 121.121 93.6318C119.701 103.317 116.749 113.77 110.853 121.445C110.82 121.488 110.772 121.55 110.716 121.609C110.44 121.968 110.151 122.333 109.85 122.687L109.839 122.699L109.828 122.71C109.828 122.71 109.826 122.712 109.821 122.718L109.802 122.741C109.79 122.755 109.767 122.781 109.741 122.809C109.41 123.192 109.066 123.581 108.72 123.948M100.153 130.168C96.5254 131.839 92.3291 132.772 87.4858 132.772C81.3467 132.762 76.3359 130.601 72.2561 127.059C63.4911 119.437 59.0878 105.438 56.8578 92.937C55.6158 85.9741 55.0437 79.434 54.7818 74.6358C54.6508 72.2361 54.5974 70.2708 54.5767 68.9045C54.5664 68.2213 54.5643 67.6877 54.5647 67.3245C54.5649 67.1428 54.5658 67.0037 54.5666 66.9098L54.5677 66.803L54.5681 66.7756L54.5682 66.7666C54.5682 66.7664 54.5682 66.7658 55.0682 66.7737L55.5681 66.7816L55.568 66.7896L55.5676 66.8153L55.5666 66.9185C55.5658 67.01 55.5649 67.1466 55.5647 67.3257C55.5643 67.6838 55.5664 68.2119 55.5766 68.8893C55.5971 70.2443 55.6502 72.1964 55.7803 74.5813C56.0407 79.3523 56.6095 85.8499 57.8422 92.7614C60.0688 105.243 64.429 118.927 72.9118 126.303C76.8239 129.701 81.6057 131.763 87.4866 131.772C92.1983 131.772 96.2504 130.865 99.7358 129.259L99.7381 129.258C100.524 128.9 101.279 128.503 102.003 128.072L102.014 128.065C102.25 127.933 102.483 127.79 102.706 127.638L102.717 127.631L102.728 127.624C103.206 127.334 103.664 127.021 104.115 126.687L104.12 126.683C104.23 126.603 104.319 126.537 104.411 126.468C104.492 126.407 104.576 126.345 104.677 126.271C104.745 126.218 104.81 126.166 104.874 126.116C105.074 125.959 105.26 125.812 105.444 125.651L105.449 125.646L105.455 125.642C105.876 125.294 106.285 124.936 106.683 124.561L106.686 124.558C107.13 124.144 107.571 123.715 107.989 123.266L107.991 123.264C108.327 122.907 108.665 122.526 108.994 122.144L109.006 122.13L109.019 122.117C109.02 122.117 109.024 122.112 109.04 122.093L109.043 122.089C109.055 122.076 109.075 122.052 109.097 122.029C109.386 121.688 109.667 121.333 109.94 120.977L109.96 120.951L109.983 120.928C110.001 120.91 110.028 120.878 110.055 120.842L110.058 120.838C115.809 113.353 118.728 103.083 120.137 93.4507L120.144 93.4044L120.152 93.3819C121.178 86.3586 121.404 79.7189 121.373 74.8312C121.358 72.385 121.278 70.3795 121.202 68.9867C121.165 68.2903 121.128 67.7471 121.1 67.3787C121.087 67.1945 121.075 67.054 121.067 66.9599L121.058 66.8539L121.056 66.8276L121.056 66.8213L121.055 66.8198L121.553 66.7737C122.051 66.7279 122.051 66.728 122.051 66.7282L122.051 66.7307L122.052 66.7381L122.055 66.7665L122.064 66.8768C122.072 66.9738 122.084 67.1173 122.098 67.3046C122.125 67.6792 122.163 68.2289 122.201 68.9323C122.278 70.339 122.358 72.3607 122.373 74.8249C122.404 79.7494 122.176 86.4484 121.139 93.542" fill="black"/>
<path fill-rule="evenodd" clip-rule="evenodd" d="M75.5995 129.177L75.6098 129.042L76.6069 129.118L76.5955 129.267L75.4384 141.458L74.451 151.891L59.1156 161.504L53.2984 165.157C52.6718 165.55 52.0577 165.952 51.4556 166.375L51.4527 166.377C41.2188 173.451 34.0285 184.162 31.3773 196.367L25.9886 221.148L25.0114 220.935L30.4 196.155C33.1052 183.702 40.4412 172.773 50.8827 165.555C51.5015 165.121 52.1298 164.71 52.7668 164.31L58.5838 160.657L73.502 151.306L74.4429 141.364L75.5995 129.177Z" fill="black"/>
<path fill-rule="evenodd" clip-rule="evenodd" d="M99.4475 129.76L100.443 129.666L102.498 151.306L119.226 161.802L123.233 164.31C124.508 165.109 125.754 165.964 126.946 166.886C136.414 174.072 143.057 184.438 145.6 196.155C145.6 196.155 145.6 196.155 145.6 196.155L150.989 220.935L150.012 221.148L144.623 196.367C142.131 184.883 135.619 174.723 126.34 167.682L126.336 167.679C125.173 166.779 123.954 165.942 122.702 165.157L118.696 162.649L101.549 151.891L99.4475 129.76Z" fill="black"/>
<path fill-rule="evenodd" clip-rule="evenodd" d="M56.5036 85.491C56.5038 85.4912 56.5039 85.4913 56.0963 85.781C55.6888 86.0707 55.6888 86.0707 55.6888 86.0707L55.6887 86.0706L55.688 86.0695L55.6844 86.0646L55.6693 86.0435C55.6557 86.0247 55.6351 85.9963 55.6078 85.9592C55.5532 85.8849 55.4719 85.7757 55.3666 85.6378C55.1558 85.3618 54.8491 84.9714 54.4671 84.5165C53.7015 83.6045 52.6413 82.4421 51.4517 81.422C50.2542 80.395 48.9659 79.5475 47.7449 79.2142C46.5578 78.8901 45.4571 79.0522 44.5036 80.0219M56.5036 85.491L56.5032 85.4904ZM56.5032 85.4904L56.5019 85.4886ZM56.5019 85.4886L56.4973 85.4821ZM56.4973 85.4821L56.4799 85.4579ZM56.4799 85.4579C56.4647 85.4369 56.4425 85.4063 56.4135 85.3669ZM56.4135 85.3669C56.3556 85.2881 56.2706 85.174 56.1613 85.0308ZM56.1613 85.0308C55.9428 84.7447 55.6264 84.3421 55.233 83.8735ZM55.233 83.8735C54.448 82.9383 53.3487 81.7315 52.1027 80.6629ZM52.1027 80.6629C50.8648 79.6013 49.4417 78.6408 48.0083 78.2495ZM48.0083 78.2495C46.5411 77.8489 45.0444 78.0456 43.7905 79.3208ZM43.7905 79.3208L43.7905 79.3208ZM43.7905 79.3208C43.1436 79.9788 42.7404 80.9404 42.5235 82.0538ZM42.5235 82.0538C42.3054 83.1736 42.2668 84.4917 42.3865 85.914ZM42.3865 85.914C42.6259 88.759 43.5037 92.0829 44.9302 95.1957ZM44.9302 95.1957C46.3558 98.3065 48.345 101.24 50.8299 103.276ZM50.8299 103.276C53.3234 105.318 56.3309 106.464 59.7457 105.942ZM59.7457 105.942L59.5947 104.954ZM59.5947 104.954C56.5179 105.424 53.7875 104.405 51.4636 102.502ZM51.4636 102.502C49.1311 100.592 47.2233 97.7991 45.8393 94.7791ZM45.8393 94.7791C44.4562 91.7609 43.6117 88.5492 43.3829 85.8302ZM43.3829 85.8302C43.2685 84.4705 43.3094 83.2494 43.5051 82.245ZM43.5051 82.245C43.702 81.2341 44.047 80.4864 44.5035 80.0219Z" fill="black"/>
<path fill-rule="evenodd" clip-rule="evenodd" d="M121.988 85.7547C121.988 85.7547 121.988 85.7546 121.571 85.4788C121.154 85.2029 121.154 85.2028 121.154 85.2026L121.156 85.2001L121.161 85.1935L121.177 85.1687C121.192 85.1472 121.213 85.1159 121.24 85.0755C121.296 84.9948 121.377 84.8779 121.481 84.7312C121.69 84.4379 121.993 84.0249 122.37 83.5434C123.123 82.5825 124.181 81.3394 125.391 80.2297C126.592 79.1272 127.982 78.1195 129.402 77.6803C130.855 77.2308 132.357 77.377 133.653 78.6093C134.322 79.2452 134.757 80.1927 135.011 81.2981C135.267 82.41 135.35 83.726 135.278 85.1516C135.134 88.003 134.368 91.3545 133.047 94.5134C131.727 97.6704 129.837 100.669 127.422 102.787C124.998 104.912 122.031 106.158 118.601 105.752L118.718 104.759C121.809 105.125 124.504 104.015 126.762 102.035C129.029 100.047 130.843 97.1924 132.124 94.1276C133.406 91.0647 134.142 87.8264 134.279 85.1012C134.348 83.7385 134.266 82.5195 134.037 81.5222C133.806 80.5185 133.436 79.7828 132.964 79.334C131.978 78.3969 130.873 78.2719 129.697 78.6356C128.488 79.0097 127.229 79.9 126.067 80.9666C124.912 82.026 123.892 83.2232 123.157 84.1603C122.791 84.6279 122.497 85.0283 122.296 85.3112C122.195 85.4525 122.118 85.5644 122.066 85.6405C122.039 85.6785 122.02 85.7075 122.007 85.7268L121.992 85.7483L121.989 85.7534L121.988 85.7547Z" fill="black"/>
<path fill-rule="evenodd" clip-rule="evenodd" d="M48.9131 89.5937C48.9132 89.5937 48.9134 89.5937 48.943 89.0946C48.9726 88.5954 48.9728 88.5954 48.973 88.5955L48.9736 88.5955L48.9752 88.5956L48.9801 88.5959L48.9964 88.597C49.0101 88.598 49.0295 88.5995 49.0543 88.6016C49.1039 88.6059 49.175 88.6126 49.2653 88.6229C49.4458 88.6436 49.7033 88.6786 50.0183 88.7365C50.6475 88.852 51.5115 89.0595 52.4526 89.4287C54.3309 90.1653 56.559 91.5637 57.7987 94.1986L56.8939 94.6243C55.8013 92.3022 53.8278 91.0422 52.0875 90.3596C51.2194 90.0191 50.4197 89.8269 49.8377 89.72C49.5472 89.6667 49.3122 89.6348 49.1515 89.6165C49.0713 89.6073 49.0097 89.6015 48.9692 89.598C48.9489 89.5963 48.934 89.5951 48.9246 89.5944L48.9147 89.5938L48.9131 89.5937ZM48.9129 89.5936C48.9128 89.5936 48.9128 89.5936 48.913 89.5937L48.9129 89.5936Z" fill="black"/>
<path fill-rule="evenodd" clip-rule="evenodd" d="M52.4007 94.1824C52.4008 94.182 52.4008 94.1815 51.9062 94.1083C51.4116 94.0352 51.4117 94.0347 51.4117 94.0343L51.4119 94.0333L51.4122 94.0312L51.413 94.0264L51.415 94.0144C51.4166 94.0054 51.4187 93.9944 51.4215 93.9816C51.4269 93.9558 51.4349 93.9225 51.4463 93.8828C51.469 93.8036 51.5055 93.6982 51.5635 93.5771C51.6799 93.3338 51.882 93.0284 52.2267 92.7463C52.925 92.1747 54.1216 91.7654 56.146 92.0038L56.0291 92.9969C54.1775 92.7789 53.2835 93.1736 52.8601 93.5201C52.6439 93.697 52.5275 93.8792 52.4655 94.0087C52.4343 94.074 52.4167 94.1264 52.4076 94.1583C52.403 94.1741 52.4006 94.1847 52.3997 94.189C52.3994 94.1904 52.3993 94.1911 52.3993 94.1911C52.3993 94.1911 52.3993 94.1909 52.3994 94.1905L52.3999 94.1873L52.4004 94.1848L52.4006 94.1832L52.4007 94.1824Z" fill="black"/>
<path fill-rule="evenodd" clip-rule="evenodd" d="M128.924 88.0557C128.924 88.0556 128.924 88.0556 128.971 88.5535C129.017 89.0513 129.017 89.0513 129.017 89.0513L129.016 89.0515L129.006 89.0525C128.996 89.0535 128.981 89.0551 128.961 89.0575C128.921 89.0623 128.86 89.0702 128.78 89.0821C128.62 89.1058 128.386 89.1455 128.097 89.2085C127.519 89.3347 126.726 89.5535 125.87 89.9228C124.154 90.663 122.224 91.9882 121.21 94.3454L120.291 93.9503C121.442 91.2755 123.622 89.8035 125.474 89.0046C126.402 88.6042 127.259 88.368 127.884 88.2315C128.197 88.1632 128.453 88.1196 128.633 88.0929C128.723 88.0795 128.794 88.0704 128.843 88.0645C128.868 88.0616 128.887 88.0595 128.901 88.058L128.917 88.0563L128.922 88.0559L128.923 88.0557L128.924 88.0557Z" fill="black"/>
<path fill-rule="evenodd" clip-rule="evenodd" d="M126.67 93.5728C126.67 93.5733 126.67 93.5738 126.178 93.6633C125.686 93.7529 125.686 93.7533 125.686 93.7537L125.687 93.7546L125.687 93.7561L125.687 93.7587L125.688 93.7618C125.688 93.7622 125.688 93.7624 125.688 93.7624C125.688 93.7624 125.688 93.7617 125.688 93.7603C125.687 93.7561 125.684 93.7456 125.679 93.7299C125.669 93.6983 125.649 93.6465 125.616 93.5823C125.55 93.4549 125.427 93.2767 125.205 93.1072C124.77 92.775 123.863 92.4106 122.02 92.691L121.869 91.7024C123.885 91.3958 125.095 91.7646 125.812 92.3125C126.166 92.583 126.379 92.8816 126.503 93.1209C126.565 93.24 126.605 93.3441 126.63 93.4226C126.643 93.4619 126.652 93.4949 126.658 93.5205C126.662 93.5333 126.664 93.5442 126.666 93.5531L126.668 93.565L126.669 93.5698L126.67 93.5719L126.67 93.5728Z" fill="black"/>
<path d="M120.751 87.4038C120.751 87.4038 116.984 85.7658 116.984 81.8352C116.984 77.9046 118.949 70.8629 116.329 66.7684C113.71 62.6749 109.942 58.9082 109.942 58.9082C109.942 58.9082 87.1788 53.3407 61.3036 62.0193C61.3036 62.0193 57.4983 65.5075 58.5193 72.276C60.9758 88.5534 56.3424 87.466 56.3424 87.466C56.3424 87.466 48.9429 76.7583 51.2462 66.1963C51.2462 66.1963 37.361 52.9582 47.9573 32.296C59.671 9.45042 100.059 11.1463 113.817 26.2838C124.862 38.4378 120.751 46.4618 120.751 46.4618C120.751 46.4618 136.475 60.5463 120.751 87.4038Z" fill="black"/>
<path d="M67.6157 56.1227C65.547 53.6126 63.9647 50.7137 62.7317 47.6851C61.4997 44.649 60.7508 41.4094 60.4851 38.1301C60.3052 36.49 60.4251 34.8402 60.4766 33.1957C60.7572 31.5727 60.859 29.9164 61.4086 28.3566C61.6582 27.5735 61.8135 26.7636 62.1392 26.0105L63.0959 23.75C63.3905 22.9862 63.8469 22.3016 64.2593 21.5999C64.6729 20.8982 65.0982 20.2061 65.5278 19.5205C64.1587 22.4623 62.7981 25.3955 62.2078 28.5548C61.7889 30.0986 61.7011 31.7012 61.4879 33.276C61.4718 34.8691 61.3593 36.461 61.5522 38.0476C61.7846 41.223 62.4767 44.363 63.4998 47.399C64.029 48.9117 64.6182 50.4083 65.3221 51.8567C65.9734 53.333 66.7672 54.7396 67.6157 56.1227Z" fill="white"/>
<path d="M74.9819 15.8914C73.8634 17.7244 73.1575 19.7363 72.549 21.7492C71.9715 23.7772 71.5837 25.8523 71.3352 27.9446L71.1606 29.5162L71.0684 31.0974C70.9624 32.1516 71.017 33.2111 70.9699 34.2717C70.9624 35.3323 71.0191 36.394 71.0224 37.461C71.0609 38.5269 71.1552 39.5907 71.1702 40.6696C70.9142 39.6272 70.717 38.5709 70.4996 37.5135C70.3699 36.4465 70.1996 35.3784 70.1342 34.3006C69.9982 32.1473 70.0046 29.9726 70.2714 27.8171C70.5478 25.667 70.9967 23.5276 71.7573 21.4889C72.5158 19.462 73.5238 17.4844 74.9819 15.8914Z" fill="white"/>
<path d="M73.6258 28.281C73.4951 27.1208 73.5412 25.9584 73.6644 24.8057C73.7811 23.6519 74.0125 22.5099 74.3339 21.3882C74.6725 20.2719 75.0807 19.1642 75.6934 18.1497C76.2891 17.1394 77.0508 16.1742 78.0524 15.5614C77.3604 16.5009 76.8751 17.4983 76.4412 18.5225C76.0138 19.5477 75.6699 20.6115 75.3624 21.6882C74.7143 23.8383 74.2483 26.0441 73.6258 28.281Z" fill="white"/>
<path d="M87.5577 28.2809C87.4731 30.6067 87.321 32.9057 87.3563 35.2037C87.3938 37.4995 87.5085 39.7867 87.8106 42.0504C88.1148 44.3129 88.6237 46.5348 89.2847 48.7192C89.6639 49.7927 90.0239 50.8822 90.5424 51.9042C90.9441 52.9916 91.6041 53.9333 92.1204 54.9842C90.6153 53.2144 89.394 51.1811 88.5091 48.9999C87.6413 46.8144 87.0853 44.5144 86.7478 42.1918C86.4661 39.8617 86.3772 37.5123 86.5357 35.1822C86.6064 34.0166 86.736 32.8564 86.8957 31.7037C87.0842 30.5531 87.3081 29.4133 87.5577 28.2809Z" fill="white"/>
<path d="M82.8463 57.5541C82.8463 57.5541 73.7499 60.4638 76.8202 66.7684C76.8202 66.7684 69.9564 56.1593 82.8463 57.5541Z" fill="black"/>
<path d="M64.2513 75.7553C64.8019 75.0482 65.4147 74.5576 66.0371 74.083L67.9033 74.158C69.145 74.2308 70.3845 74.3723 71.6197 74.5833C72.857 74.7901 74.0858 75.1061 75.3018 75.4928C75.906 75.7018 76.5113 75.9128 77.1026 76.1828C77.5076 76.8663 77.845 77.6183 78.0539 78.4432C77.2033 78.7368 76.5198 78.8771 75.8149 79.1288C75.3275 78.9028 74.8111 78.7239 74.2947 78.545C73.2491 78.214 72.1746 77.9333 71.0691 77.7501C69.9656 77.5615 68.845 77.433 67.717 77.3666C67.1524 77.343 66.5878 77.2991 66.0254 77.3291C65.4597 76.8459 64.8855 76.3852 64.2513 75.7553Z" fill="black"/>
<path d="M72.6606 84.998C72.6606 86.7271 71.781 88.1294 70.6947 88.1294C69.6095 88.1294 68.7299 86.7271 68.7299 84.998C68.7299 83.2678 69.6095 81.8655 70.6947 81.8655C71.781 81.8655 72.6606 83.2678 72.6606 84.998Z" fill="black"/>
<path d="M111.118 74.9571C110.495 75.5902 109.952 76.0734 109.424 76.5758C108.879 76.5694 108.333 76.6412 107.788 76.699C106.698 76.8319 105.618 77.0547 104.567 77.3558C103.514 77.6493 102.489 78.0296 101.515 78.5031C101.02 78.7259 100.549 78.9906 100.084 79.2637C99.3585 79.103 98.6568 79.0484 97.7827 78.8459C97.8994 78.006 98.134 77.2272 98.4436 76.4998C98.9953 76.1762 99.5535 75.8656 100.133 75.602C101.279 75.046 102.473 74.6036 103.69 74.264C104.905 73.9169 106.142 73.6619 107.392 73.5098C108.017 73.4273 108.646 73.3941 109.277 73.333C109.928 73.784 110.565 74.2533 111.118 74.9571Z" fill="black"/>
<path d="M103.011 84.998C103.011 86.7271 103.891 88.1294 104.976 88.1294C106.062 88.1294 106.942 86.7271 106.942 84.998C106.942 83.2678 106.062 81.8655 104.976 81.8655C103.891 81.8655 103.011 83.2678 103.011 84.998Z" fill="black"/>
<path fill-rule="evenodd" clip-rule="evenodd" d="M84.842 83.7139C84.8413 83.7088 84.8412 83.7085 84.8421 83.712L85.812 83.4685C85.842 83.588 85.8598 83.8103 85.8709 84.066C85.8829 84.3439 85.8887 84.7169 85.8809 85.1729C85.8653 86.0852 85.795 87.3368 85.6086 88.8327C85.248 91.7249 84.4518 95.5403 82.7691 99.5854C82.8366 99.6193 82.9132 99.6562 82.9982 99.6946C83.3918 99.8727 83.9642 100.085 84.6704 100.215C86.075 100.475 88.0205 100.415 90.1718 99.0974L90.694 99.9502C88.3009 101.416 86.0972 101.496 84.4887 101.198C83.6884 101.051 83.0383 100.81 82.586 100.606C82.3596 100.503 82.1819 100.409 82.0587 100.34C81.997 100.305 81.9489 100.276 81.9151 100.255C81.8982 100.245 81.8848 100.236 81.8751 100.23L81.8633 100.222L81.8595 100.22L81.8581 100.219L81.8575 100.219C81.8573 100.218 81.8571 100.218 82.1346 99.8023L81.8571 100.218L81.511 99.9873L81.6752 99.605C83.4332 95.5114 84.2523 91.6286 84.6162 88.709C84.7982 87.2497 84.866 86.0337 84.8811 85.1558C84.8886 84.7167 84.8828 84.364 84.8718 84.1093C84.8663 83.9817 84.8595 83.8812 84.8528 83.808C84.8477 83.7528 84.8435 83.7239 84.842 83.7139Z" fill="black"/>
<path fill-rule="evenodd" clip-rule="evenodd" d="M80.6269 110.203C80.6268 110.203 80.6267 110.203 80.7319 109.714C80.8371 109.226 80.837 109.226 80.837 109.226L80.8417 109.227L80.8582 109.23L80.9262 109.244C80.9869 109.256 81.0779 109.274 81.1974 109.297C81.4363 109.342 81.789 109.406 82.2402 109.478C83.1427 109.623 84.4389 109.804 86.008 109.943C89.149 110.223 93.3699 110.341 97.7105 109.698L97.8571 110.687C93.4131 111.345 89.108 111.224 85.9192 110.939C84.3234 110.797 83.0037 110.614 82.0816 110.466C81.6205 110.392 81.2586 110.327 81.0111 110.28C80.8874 110.256 80.7922 110.237 80.7275 110.224L80.6535 110.209L80.6341 110.205L80.6289 110.204L80.6269 110.203Z" fill="black"/>
<path fill-rule="evenodd" clip-rule="evenodd" d="M85.3475 113.965C85.3473 113.965 85.3472 113.965 85.4294 113.472C85.5115 112.979 85.5114 112.979 85.5114 112.979L85.5135 112.979L85.5222 112.981L85.5588 112.986C85.5915 112.991 85.6407 112.999 85.7047 113.008C85.8327 113.026 86.0197 113.05 86.2521 113.076C86.7176 113.127 87.3627 113.182 88.0814 113.197C89.5457 113.228 91.2126 113.089 92.3171 112.5L92.7879 113.382C91.439 114.102 89.5443 114.228 88.0605 114.197C87.305 114.181 86.6294 114.124 86.1426 114.07C85.8989 114.043 85.7018 114.017 85.5649 113.998C85.4964 113.988 85.4429 113.98 85.4061 113.975L85.3635 113.968L85.352 113.966L85.3475 113.965Z" fill="black"/>
<path d="M120.632 93.5235C119.218 103.188 116.283 113.558 110.455 121.143C107.659 124.764 104.209 127.753 99.9455 129.713C96.3888 131.352 92.2643 132.273 87.4862 132.273C81.4762 132.263 76.5804 130.151 72.5844 126.681C63.9604 119.182 59.5788 105.341 57.3504 92.8496C57.3504 92.8496 63.0605 106.487 67.1208 111.147C71.1703 115.818 75.177 119.417 89.4467 119.664C103.717 119.417 107.734 115.818 111.783 111.147C115.704 106.637 120.343 94.2841 120.632 93.5235Z" fill="black"/>
<path fill-rule="evenodd" clip-rule="evenodd" d="M73.609 151.942L74.3379 151.257L90.3647 168.32L101.61 151.324L102.444 151.875L90.5012 169.926L73.609 151.942Z" fill="black"/>
<path fill-rule="evenodd" clip-rule="evenodd" d="M67.2893 155.728L68.1888 155.291L75.587 170.519L85.6127 163.867L86.1655 164.7L75.1872 171.984L67.2893 155.728Z" fill="black"/>
<path fill-rule="evenodd" clip-rule="evenodd" d="M111.783 157.685L103.839 172.068L94.4505 162.88L95.1499 162.165L103.599 170.434L110.908 157.202L111.783 157.685Z" fill="black"/>
<path fill-rule="evenodd" clip-rule="evenodd" d="M94.3387 169.623H90.4332V168.623H95.2471L95.2967 169.068L94.7998 169.123C95.2967 169.068 95.2967 169.067 95.2967 169.068L95.297 169.07L95.2976 169.076L95.2996 169.095C95.3013 169.112 95.3037 169.136 95.3066 169.167C95.3124 169.23 95.3201 169.32 95.3283 169.435C95.3447 169.665 95.3628 169.993 95.3704 170.39C95.3855 171.183 95.3587 172.262 95.1887 173.394C94.8719 175.502 94.0202 178.017 91.7652 178.969L90.9331 221.046L89.9333 221.026L90.7791 178.258L91.1139 178.147C93.0292 177.508 93.8735 175.416 94.1998 173.245C94.3589 172.186 94.385 171.167 94.3705 170.409C94.3646 170.095 94.3517 169.828 94.3387 169.623Z" fill="black"/>
<path d="M62.4384 221.042H53.9216L51.1683 165.966C51.7789 165.537 52.4003 165.13 53.0324 164.734L58.8496 161.081L62.4384 221.042Z" fill="black"/>
<path d="M126.642 167.283L123.963 221.041H115.447L118.96 162.227L122.967 164.734C124.231 165.525 125.463 166.372 126.642 167.283Z" fill="black"/>
<path d="M100.267 133.109C91.3965 136.076 79.6657 139.89 74.9412 141.411L76.0982 129.22C79.3657 131.159 83.1367 132.262 87.4862 132.272C92.2642 132.272 96.3887 131.352 99.9455 129.713L100.267 133.109Z" fill="black"/>
</g>
</svg>
