<svg width="176" height="175" viewBox="0 0 176 175" fill="none" xmlns="http://www.w3.org/2000/svg">
<path fill-rule="evenodd" clip-rule="evenodd" d="M88 174C135.773 174 174.5 135.273 174.5 87.5C174.5 39.7274 135.773 1 88 1C40.2274 1 1.5 39.7274 1.5 87.5C1.5 135.273 40.2274 174 88 174ZM88 175C136.325 175 175.5 135.825 175.5 87.5C175.5 39.1751 136.325 0 88 0C39.6751 0 0.5 39.1751 0.5 87.5C0.5 135.825 39.6751 175 88 175Z" fill="black"/>
<mask id="mask0_604_670" style="mask-type:alpha" maskUnits="userSpaceOnUse" x="0" y="0" width="176" height="175">
<path d="M175.5 87.5C175.5 135.825 136.325 175 88 175C39.6751 175 0.5 135.825 0.5 87.5C0.5 39.1751 39.6751 0 88 0C136.325 0 175.5 39.1751 175.5 87.5Z" fill="#D9D9D9"/>
</mask>
<g mask="url(#mask0_604_670)">
<path d="M73.3 121.179C73.99 124.765 74.7689 128.527 77.1529 131.292C80.8769 135.612 87.2449 136.192 92.9409 136.461C96.1679 136.613 99.928 136.533 101.903 133.978C103.362 132.093 103.308 129.5 103.548 127.128C104.313 119.576 108.596 112.925 111.72 106.008C119.726 88.2829 120.158 67.2839 112.891 49.2439C111.879 46.7339 110.672 44.2049 108.645 42.4109C106.365 40.3949 103.3 39.5289 100.302 39.0069C86.692 36.6339 60.4409 40.0269 61.3029 58.2649C62.2739 78.8159 69.408 100.955 73.3 121.179Z" fill="#FFE7FB"/>
<path d="M132.764 200.626C135.27 200.696 137.975 200.709 140.016 199.255C143.473 196.793 143.229 191.667 142.553 187.477C140.198 172.881 136.188 157.078 124.243 148.366C115.035 141.651 102.909 140.591 91.5213 140.992C82.3933 141.314 73.3073 142.419 64.2853 143.842C58.3983 144.77 52.2563 145.956 47.6183 149.7C41.1973 154.883 39.1653 163.644 37.5273 171.732C36.2373 178.097 30.1073 192.285 36.1293 197.036C41.6923 201.425 59.8633 198.575 66.8333 198.771C88.8103 199.389 110.787 199.998 132.764 200.626Z" fill="#6987FF"/>
<path d="M76.5912 188.839C77.5772 193.148 79.0382 197.564 82.2112 200.643C85.3832 203.721 90.6992 204.979 94.2952 202.408C98.6262 199.312 98.3682 192.969 98.3772 187.646C98.3862 181.815 99.2612 175.987 100.962 170.41C103.45 162.256 107.715 154.537 108.503 146.049C108.769 143.191 108.44 139.905 106.179 138.138C104.805 137.064 102.989 136.783 101.257 136.576C91.6882 135.433 75.0032 132.564 71.9542 145.033C70.4962 150.993 73.0142 159.217 73.5602 165.265C74.2722 173.162 74.8182 181.088 76.5912 188.839Z" fill="#DBC9FF"/>
<path d="M73.1171 89.6279C70.6871 89.6519 68.2551 89.6759 65.8251 89.6999C65.1261 89.7059 64.3331 89.7549 63.8851 90.2919C63.3341 90.9519 63.6611 92.0259 64.3351 92.5599C65.0101 93.0929 65.9061 93.2289 66.7581 93.3459C67.8541 93.4969 68.9501 93.6479 70.0451 93.7989C71.5891 94.0119 73.3421 94.1679 74.5321 93.1619C75.7231 92.1559 75.2751 89.6059 73.7211 89.7239" fill="#F03FA3"/>
<path d="M107.299 90.8477C104.868 90.8717 102.438 90.8947 100.007 90.9187C99.3082 90.9257 98.5162 90.9747 98.0672 91.5117C97.5172 92.1717 97.8432 93.2457 98.5182 93.7797C99.1912 94.3127 100.088 94.4487 100.939 94.5657C102.035 94.7167 103.132 94.8677 104.228 95.0187C105.771 95.2307 107.523 95.3877 108.714 94.3817C109.904 93.3757 109.457 90.8257 107.903 90.9447" fill="#F03FA3"/>
<path d="M68.8857 72.9367C69.5647 72.1217 70.4297 71.5527 71.3317 71.0887C72.2407 70.6347 73.2147 70.3207 74.2167 70.1377C76.2057 69.7787 78.3797 69.9277 80.1867 71.0067C79.1617 71.2947 78.2297 71.4097 77.3047 71.6087L74.5737 72.1047C72.7467 72.4157 70.9577 72.7827 68.8857 72.9367Z" fill="black"/>
<path d="M76.2979 80.5768C76.2979 82.1918 75.4769 83.4998 74.4629 83.4998C73.4499 83.4998 72.6289 82.1918 72.6289 80.5768C72.6289 78.9618 73.4499 77.6528 74.4629 77.6528C75.4769 77.6528 76.2979 78.9618 76.2979 80.5768Z" fill="black"/>
<path d="M108.954 73.2486C106.893 72.9776 105.128 72.5106 103.322 72.0976L100.623 71.4486C99.7103 71.1986 98.7863 71.0306 97.7793 70.6846C99.6453 69.7106 101.823 69.6836 103.789 70.1536C104.778 70.3926 105.733 70.7616 106.615 71.2656C107.489 71.7806 108.321 72.3966 108.954 73.2486Z" fill="black"/>
<path d="M101.629 80.5768C101.629 82.1918 102.45 83.4998 103.464 83.4998C104.477 83.4998 105.298 82.1918 105.298 80.5768C105.298 78.9618 104.477 77.6528 103.464 77.6528C102.45 77.6528 101.629 78.9618 101.629 80.5768Z" fill="black"/>
<path fill-rule="evenodd" clip-rule="evenodd" d="M86.1725 79.0312C86.1744 79.0415 86.1819 79.0799 86.2036 79.1276L87.1141 78.7141C87.155 78.8041 87.1626 78.8918 87.1647 78.9164C87.1648 78.9171 87.1648 78.9178 87.1649 78.9185C87.1685 78.9593 87.1694 79.0016 87.1693 79.0404C87.1691 79.1193 87.1643 79.2166 87.1562 79.3263C87.1399 79.5474 87.1082 79.8454 87.0612 80.2005C86.9672 80.9118 86.8096 81.8685 86.5836 82.926C86.1427 84.9887 85.4295 87.4917 84.3879 89.2939C84.387 89.3366 84.3885 89.397 84.3976 89.4716C84.4195 89.6528 84.4861 89.9226 84.6764 90.2353C85.0532 90.8546 85.9641 91.7184 88.1867 92.3457L87.9151 93.3081C85.5346 92.6363 84.37 91.6556 83.8221 90.7552C83.5501 90.3081 83.442 89.8992 83.4048 89.5916C83.3863 89.4386 83.3854 89.3116 83.3901 89.2183C83.3924 89.1717 83.3961 89.1333 83.3996 89.1041C83.4014 89.0896 83.4032 89.0773 83.4047 89.0674L83.4069 89.0543L83.4078 89.0492L83.4082 89.047L83.4084 89.0459C83.4085 89.0454 83.4086 89.045 83.8999 89.1379L83.4086 89.045L83.4249 88.9585L83.4699 88.8827C84.4567 87.2195 85.1617 84.794 85.6057 82.717C85.8261 81.6856 85.9792 80.7548 86.0699 80.0694C86.1153 79.7261 86.1445 79.4485 86.1589 79.2528C86.1662 79.1541 86.1692 79.0828 86.1693 79.0373C86.1694 79.0175 86.1689 79.0081 86.1688 79.0065C86.1688 79.0062 86.1688 79.0061 86.1688 79.0063L86.1688 79.0064C86.1689 79.0074 86.1697 79.0166 86.1725 79.0312Z" fill="black"/>
<path fill-rule="evenodd" clip-rule="evenodd" d="M81.9123 99.9264C81.9122 99.9263 81.912 99.9263 82.0693 99.4517C82.2267 98.9771 82.2266 98.9771 82.2265 98.9771L82.2306 98.9784L82.2462 98.9834C82.2603 98.988 82.282 98.9949 82.311 99.004C82.369 99.0221 82.456 99.0488 82.5696 99.0821C82.7968 99.1486 83.1304 99.2415 83.5509 99.3455C84.3924 99.5535 85.5795 99.805 86.9587 99.9782C89.7294 100.326 93.2182 100.351 96.2364 99.1264L96.6123 100.053C93.3625 101.371 89.6738 101.327 86.834 100.97C85.4079 100.791 84.1816 100.531 83.3109 100.316C82.8753 100.209 82.528 100.112 82.2886 100.042C82.1688 100.007 82.0759 99.9783 82.0124 99.9584C81.9806 99.9484 81.9561 99.9406 81.9393 99.9352L81.9198 99.9289L81.9144 99.9271L81.9123 99.9264Z" fill="black"/>
<path fill-rule="evenodd" clip-rule="evenodd" d="M75.3622 115.873L76.3578 115.967L74.7244 133.182L71.556 135.173L54.9657 145.574C44.5095 152.132 37.14 162.618 34.5186 174.676L29.4886 197.806L28.5114 197.594L33.5414 174.464C36.22 162.142 43.7505 151.428 54.4343 144.726L71.024 134.327L73.7756 132.598L75.3622 115.873Z" fill="black"/>
<path fill-rule="evenodd" clip-rule="evenodd" d="M99.4524 115.086L100.448 114.993L101.688 128.042L102.115 132.597L121.456 144.726C132.14 151.427 139.67 162.142 142.349 174.463L147.379 197.593L146.402 197.806L141.372 174.676C138.75 162.617 131.381 152.132 120.925 145.573C120.925 145.573 120.925 145.573 120.925 145.573L101.165 133.182L99.4524 115.086Z" fill="black"/>
<path fill-rule="evenodd" clip-rule="evenodd" d="M56.0837 65.1153C56.2733 67.3705 56.5675 70.4934 57.0658 74.1114L57.0663 74.115C57.119 74.5187 57.1795 74.9386 57.2413 75.3635L57.2511 75.3733L57.2752 75.5371C58.1326 81.3792 59.5217 88.2953 61.8199 94.862C64.12 101.434 67.3182 107.62 71.7725 112.035L71.774 112.036C73.0987 113.361 74.5483 114.526 76.1224 115.494C78.5365 116.979 81.2311 118.004 84.269 118.424L84.2705 118.425C85.3069 118.571 86.3934 118.65 87.5201 118.65C87.5202 118.65 87.52 118.65 87.5201 118.65L87.5213 118.65L87.5287 118.65L87.5629 118.649C87.5943 118.648 87.6425 118.647 87.7068 118.644C87.8353 118.639 88.0281 118.628 88.2783 118.606C88.7789 118.563 89.5092 118.475 90.416 118.298C92.2298 117.944 94.747 117.235 97.544 115.814C98.2441 115.459 98.9614 115.066 99.6865 114.615L99.6874 114.614C101.881 113.257 104.175 111.456 106.392 109.032C112.967 101.846 118.882 89.2062 119.211 66.9823L119.212 66.9024C119.211 66.889 119.21 66.8747 119.21 66.8597V66.8512C119.24 65.0889 119.23 63.2661 119.181 61.3829L120.18 61.3564C120.23 63.2442 120.24 65.073 120.211 66.8428L120.213 66.8586C120.214 66.8637 120.215 66.8703 120.216 66.8779C120.217 66.8827 120.217 66.8878 120.218 66.8933C120.219 66.9075 120.22 66.9269 120.22 66.9497C120.221 66.9556 120.221 67.0008 120.212 67.052C120.212 67.0566 120.211 67.0623 120.209 67.0689C119.866 89.4208 113.906 102.301 107.129 109.707C104.846 112.203 102.48 114.062 100.214 115.465C99.4593 115.934 98.7164 116.341 97.9966 116.706C97.9965 116.706 97.9967 116.706 97.9966 116.706C95.1037 118.175 92.4961 118.911 90.6075 119.279C89.663 119.463 88.8977 119.556 88.3654 119.603C88.0993 119.626 87.8913 119.638 87.7483 119.644C87.6768 119.647 87.6215 119.648 87.5832 119.649L87.5387 119.65L87.5263 119.65L87.5226 119.65L87.5213 119.65C87.5211 119.65 87.5205 119.65 87.5205 119.15L87.5213 119.65C86.3484 119.65 85.2145 119.568 84.1312 119.415C80.9493 118.975 78.1241 117.9 75.5984 116.345C73.9528 115.334 72.4427 114.119 71.0676 112.744C66.4624 108.179 63.2008 101.835 60.876 95.1923C58.5709 88.6057 57.1745 81.6897 56.3099 75.8461L56.2996 75.8358L56.2755 75.6704C56.2058 75.1922 56.1354 74.7095 56.0749 74.2461" fill="black"/>
<path d="M129.969 35.6968C135.778 55.7188 143.343 135.45 103.402 133.998L99.9457 115.04C108.815 109.56 119.266 96.7898 119.706 66.9898C119.716 66.9798 119.716 66.9798 119.716 66.9798C119.716 66.9798 119.716 66.9698 119.716 66.9498C119.716 66.9298 119.706 66.8998 119.706 66.8598C119.656 65.9598 118.896 59.9698 108.605 45.4698C108.605 45.4698 95.3357 61.3698 75.8557 61.3698C57.5657 61.3698 56.3457 70.5798 56.5657 74.1798C56.6257 75.0598 56.7657 75.5998 56.7657 75.5998L56.7757 75.6098C58.7557 89.0898 63.5657 108.35 75.8557 115.92L74.2457 132.89L47.6177 149.7C45.2527 129.542 41.6547 103.132 41.8147 70.4218C41.8147 70.4218 40.5947 9.68884 97.7357 15.3758C97.7357 15.3758 111.33 17.7308 113.243 24.1188C113.243 24.1188 127.078 25.7378 129.969 35.6968Z" fill="black"/>
<path fill-rule="evenodd" clip-rule="evenodd" d="M73.9748 133.31C73.9745 133.31 73.9743 133.309 74.2461 132.89C74.5179 132.47 74.5178 132.47 74.5177 132.47L74.5177 132.47L74.5188 132.471L74.5247 132.474L74.5509 132.491C74.5748 132.506 74.6115 132.529 74.6605 132.558C74.7585 132.618 74.9059 132.705 75.0995 132.813C75.4866 133.03 76.058 133.332 76.7878 133.669C78.2482 134.342 80.3383 135.151 82.8528 135.69C87.8784 136.766 94.5835 136.764 101.369 132.467L101.904 133.312C94.8406 137.785 87.8508 137.783 82.6433 136.667C80.0414 136.11 77.8805 135.274 76.369 134.577C75.6129 134.228 75.0181 133.914 74.6106 133.686C74.4068 133.571 74.2497 133.479 74.1426 133.414C74.0891 133.381 74.048 133.356 74.0198 133.338L73.9872 133.318L73.9783 133.312L73.9757 133.31L73.9748 133.31Z" fill="black"/>
<path fill-rule="evenodd" clip-rule="evenodd" d="M72.1536 134.373C72.1533 134.373 72.153 134.373 72.4834 133.998C72.8138 133.622 72.8137 133.622 72.8136 133.622L72.8138 133.622L72.8151 133.623L72.8221 133.629L72.8526 133.656C72.8803 133.679 72.9225 133.715 72.9788 133.761C73.0915 133.854 73.2604 133.99 73.4818 134.159C73.9248 134.497 74.5772 134.967 75.4089 135.49C77.0738 136.537 79.4484 137.791 82.2923 138.626C87.9603 140.291 95.5026 140.299 103.072 133.623L103.733 134.372C95.8582 141.319 87.941 141.327 82.0105 139.586C79.0551 138.718 76.5958 137.418 74.8765 136.337C74.016 135.795 73.3388 135.308 72.8752 134.954C72.6433 134.777 72.4647 134.633 72.3431 134.533C72.2823 134.483 72.2357 134.444 72.2039 134.417L72.1672 134.385L72.1573 134.377L72.1544 134.374L72.1536 134.373Z" fill="black"/>
<path fill-rule="evenodd" clip-rule="evenodd" d="M69.3957 141.065C69.958 143.79 70.7553 147.607 71.6753 151.987C71.7821 152.491 71.8899 153.003 71.999 153.522C72.2175 154.56 72.4416 155.625 72.6748 156.704L72.6754 156.707C72.7153 156.898 72.7554 157.089 72.7956 157.281C73.1077 158.77 73.4275 160.296 73.7552 161.846M69.3957 141.065C69.1145 139.702 68.8923 138.613 68.743 137.863ZM68.743 137.863C68.6682 137.488 68.6121 137.2 68.5761 137.005ZM68.5761 137.005C68.5579 136.907 68.5455 136.837 68.5385 136.792ZM68.5385 136.792L68.5346 136.767ZM68.5346 136.767C68.5338 136.761 68.5335 136.758 68.5335 136.758ZM68.5335 136.758C68.5335 136.758 68.5335 136.758 68.5335 136.758ZM68.5335 136.758L68.5341 136.765ZM68.5341 136.765C68.5344 136.769 68.535 136.777 68.5351 136.789ZM68.5351 136.789C68.5352 136.797 68.5356 136.825 68.5305 136.861ZM68.5305 136.861C68.5281 136.878 68.522 136.916 68.5058 136.96ZM68.5058 136.96C68.4938 136.994 68.4517 137.103 68.336 137.19ZM68.336 137.19L67.736 136.39ZM67.736 136.39C67.6201 136.477 67.5777 136.586 67.5655 136.62ZM67.5655 136.62C67.549 136.666 67.5428 136.704 67.5402 136.722ZM67.5402 136.722C67.5348 136.761 67.5351 136.791 67.5352 136.803ZM67.5352 136.803C67.5356 136.83 67.5379 136.853 67.5391 136.864ZM67.5391 136.864C67.542 136.891 67.5463 136.92 67.5507 136.948ZM67.5507 136.948C67.5599 137.006 67.5743 137.087 67.5928 137.187ZM67.5928 137.187C67.6301 137.389 67.6873 137.683 67.7622 138.059ZM67.7622 138.059C67.9123 138.812 68.135 139.904 68.4163 141.267ZM68.4163 141.267C68.979 143.994 69.7767 147.812 70.6967 152.192ZM70.6967 152.192C70.8029 152.694 70.9106 153.205 71.0197 153.724ZM71.0197 153.724C71.2384 154.763 71.4634 155.832 71.697 156.914ZM71.697 156.914C71.7368 157.104 71.7768 157.294 71.8168 157.486C72.1289 158.975 72.449 160.502 72.7769 162.053C72.8975 162.624 73.0194 163.196 73.1415 163.77C73.3539 164.767 73.5672 165.769 73.7766 166.772L73.7773 166.775C74.0922 168.23 74.3997 169.692 74.7065 171.151C74.7599 171.405 74.8133 171.659 74.8668 171.913C74.9591 172.347 75.0515 172.78 75.1433 173.211C75.39 174.368 75.6335 175.51 75.8665 176.631L75.8672 176.635C76.1192 177.809 76.3624 178.96 76.5998 180.085C76.7201 180.655 76.839 181.218 76.9569 181.773L76.9574 181.776C77.1513 182.67 77.3341 183.529 77.5117 184.365C77.6661 185.091 77.8166 185.798 77.9671 186.494C78.3671 188.394 78.7371 190.134 79.057 191.634C79.2093 192.353 79.3503 193.02 79.4792 193.631C79.714 194.742 79.9085 195.663 80.0571 196.354C80.1571 196.824 80.2346 197.187 80.2871 197.432L80.3672 197.805C80.3672 197.805 80.3673 197.805 80.856 197.7L81.3448 197.594L81.2649 197.222C81.2125 196.978 81.135 196.615 81.0351 196.146L81.0349 196.145C80.8867 195.455 80.6928 194.537 80.4584 193.428C80.3293 192.817 80.188 192.147 80.0352 191.426C79.7152 189.926 79.3452 188.186 78.9453 186.287L78.9447 186.284C78.7979 185.605 78.6468 184.895 78.4913 184.164C78.3118 183.319 78.1264 182.448 77.9349 181.565C77.8175 181.011 77.6989 180.449 77.5787 179.88C77.3411 178.755 77.0975 177.601 76.8452 176.426C76.6117 175.303 76.3675 174.157 76.1208 173C76.0291 172.57 75.9372 172.139 75.8452 171.706C75.7919 171.453 75.7386 171.2 75.6852 170.946C75.3785 169.488 75.0705 168.023 74.7551 166.566C74.5455 165.562 74.3315 164.557 74.119 163.558C73.9969 162.985 73.8753 162.414 73.7552 161.846" fill="black"/>
<path fill-rule="evenodd" clip-rule="evenodd" d="M58.4267 142.301C58.442 142.274 58.4976 142.177 58.6117 142.105L59.1427 142.953C59.2437 142.889 59.2893 142.808 59.2961 142.796C59.2963 142.795 59.2965 142.795 59.2966 142.795C59.3037 142.782 59.3081 142.772 59.3102 142.768L59.3126 142.762C59.3126 142.762 59.3132 142.761 59.3131 142.761C59.313 142.761 59.3133 142.76 59.3131 142.761C59.3131 142.761 59.313 142.761 59.3126 142.762L59.3114 142.766L59.3067 142.782C59.3028 142.795 59.298 142.813 59.2925 142.835C59.2698 142.929 59.2418 143.071 59.2092 143.264C59.1446 143.646 59.0681 144.187 58.9843 144.839C58.8169 146.14 58.6229 147.86 58.4383 149.577C58.2539 151.293 58.0793 153.004 57.9507 154.285C57.8865 154.926 57.8337 155.459 57.7971 155.832L57.7618 156.193L70.3665 169.634L66.8582 177.733L79.6412 189.985L78.9492 190.707L65.6642 177.973L69.1879 169.839L56.7227 156.547L56.7445 156.322L57.2422 156.37C56.7445 156.322 56.7445 156.322 56.7445 156.322L56.8019 155.734C56.8386 155.361 56.8914 154.827 56.9557 154.185C57.0844 152.902 57.2593 151.19 57.4441 149.47C57.6288 147.752 57.8237 146.024 57.9925 144.711C58.0768 144.056 58.1552 143.499 58.2232 143.097C58.257 142.898 58.2897 142.727 58.321 142.599C58.3363 142.536 58.3543 142.47 58.3761 142.412C58.3867 142.383 58.403 142.343 58.4267 142.301Z" fill="black"/>
<path fill-rule="evenodd" clip-rule="evenodd" d="M106.765 141.267C106.201 143.994 105.401 147.812 104.476 152.191C104.266 153.211 104.043 154.267 103.816 155.343C103.707 155.862 103.596 156.386 103.486 156.912C103.277 157.905 103.062 158.917 102.844 159.942C102.695 160.64 102.545 161.344 102.396 162.052C102.2 163.006 101.996 163.971 101.792 164.937C101.663 165.549 101.533 166.161 101.406 166.772L101.405 166.775C101.09 168.23 100.782 169.692 100.476 171.151C100.422 171.405 100.369 171.659 100.315 171.913C100.178 172.561 100.041 173.208 99.9055 173.851C99.7074 174.789 99.5112 175.719 99.3153 176.633C99.0647 177.832 98.8139 179.009 98.5695 180.156C98.4531 180.702 98.3381 181.242 98.2253 181.773M106.765 141.267C107.047 139.904 107.27 138.812 107.42 138.059ZM107.42 138.059C107.495 137.683 107.552 137.389 107.589 137.188ZM107.589 137.188C107.608 137.087 107.622 137.006 107.631 136.948ZM107.631 136.948C107.636 136.92 107.64 136.891 107.643 136.864ZM107.643 136.864C107.644 136.853 107.647 136.83 107.647 136.803ZM107.647 136.803C107.647 136.791 107.647 136.761 107.642 136.722ZM107.642 136.722C107.639 136.704 107.633 136.666 107.617 136.62ZM107.617 136.62C107.604 136.586 107.562 136.477 107.446 136.39ZM107.446 136.39L106.846 137.19ZM106.846 137.19C106.731 137.103 106.688 136.994 106.676 136.96ZM106.676 136.96C106.66 136.916 106.654 136.878 106.652 136.861ZM106.652 136.861C106.647 136.825 106.647 136.797 106.647 136.789ZM106.647 136.789C106.647 136.777 106.648 136.769 106.648 136.765ZM106.648 136.765L106.649 136.758ZM106.649 136.758C106.649 136.758 106.648 136.761 106.648 136.767ZM106.648 136.767L106.644 136.792ZM106.644 136.792C106.637 136.837 106.624 136.907 106.606 137.005ZM106.606 137.005C106.57 137.2 106.514 137.488 106.439 137.863ZM106.439 137.863C106.29 138.613 106.067 139.702 105.785 141.065ZM105.785 141.065C105.222 143.79 104.422 147.607 103.497 151.986ZM103.497 151.986L103.496 151.989ZM103.496 151.989C103.288 153.006 103.065 154.058 102.839 155.133ZM102.839 155.133C102.729 155.653 102.618 156.178 102.507 156.707ZM102.507 156.707C102.299 157.699 102.084 158.708 101.866 159.73ZM101.866 159.73C101.718 160.429 101.567 161.135 101.417 161.846ZM101.417 161.846L101.416 161.849ZM101.416 161.849C101.221 162.803 101.018 163.761 100.815 164.725ZM100.815 164.725C100.685 165.337 100.556 165.95 100.427 166.566ZM100.427 166.566C100.112 168.023 99.8036 169.488 99.497 170.946C99.4436 171.2 99.3903 171.453 99.337 171.706C99.1985 172.358 99.0619 173.005 98.9263 173.648C98.7286 174.585 98.5331 175.511 98.3373 176.425L98.3367 176.427C98.0864 177.625 97.8362 178.799 97.592 179.945C97.4754 180.492 97.3602 181.032 97.2471 181.566C96.8973 183.225 96.5574 184.804 96.2375 186.284L96.2369 186.287C95.837 188.186 95.4671 189.926 95.1472 191.425C94.9944 192.147 94.8529 192.816 94.7239 193.427C94.4894 194.537 94.2956 195.455 94.1473 196.145L94.1471 196.146C94.0472 196.615 93.9697 196.978 93.9173 197.222L93.8375 197.594L94.8149 197.805L94.8951 197.432C94.9476 197.187 95.0251 196.824 95.1251 196.354C95.2737 195.663 95.4682 194.742 95.7029 193.631C95.8318 193.021 95.9729 192.353 96.1252 191.634C96.4451 190.134 96.8152 188.394 97.2152 186.494C97.5351 185.014 97.8752 183.434 98.2253 181.773" fill="black"/>
<path fill-rule="evenodd" clip-rule="evenodd" d="M115.886 142.796C115.893 142.808 115.938 142.889 116.039 142.953L116.57 142.105C116.684 142.177 116.74 142.274 116.755 142.301C116.779 142.343 116.795 142.383 116.806 142.412C116.828 142.47 116.846 142.536 116.861 142.599C116.892 142.727 116.925 142.898 116.959 143.097C117.027 143.499 117.105 144.056 117.189 144.711C117.358 146.024 117.553 147.752 117.738 149.47C117.923 151.19 118.098 152.902 118.226 154.185C118.291 154.827 118.343 155.361 118.38 155.734L118.437 156.321C118.437 156.321 118.437 156.322 117.94 156.37L118.437 156.321L118.459 156.547L105.994 169.839L109.518 177.973L96.2327 190.707L95.5407 189.985L108.324 177.733L104.815 169.634L117.42 156.193L117.385 155.832C117.348 155.459 117.295 154.926 117.231 154.285C117.103 153.004 116.928 151.293 116.744 149.577C116.559 147.86 116.365 146.14 116.198 144.839C116.114 144.187 116.037 143.646 115.973 143.264C115.94 143.071 115.912 142.929 115.889 142.835C115.884 142.813 115.879 142.795 115.875 142.782L115.871 142.766L115.869 142.762C115.869 142.761 115.869 142.76 115.869 142.76C115.868 142.76 115.869 142.761 115.869 142.76C115.869 142.76 115.869 142.761 115.869 142.762L115.872 142.768C115.874 142.772 115.878 142.782 115.885 142.795L115.886 142.796Z" fill="black"/>
<path d="M103.986 152.09C103.676 153.6 103.336 155.19 102.996 156.81H72.1855C71.8355 155.19 71.5055 153.6 71.1855 152.09H103.986Z" fill="black"/>
<path d="M101.906 161.95C101.586 163.51 101.246 165.09 100.916 166.67H74.2656C73.9356 165.09 73.5956 163.51 73.2656 161.95H101.906Z" fill="black"/>
<path d="M99.8264 171.81C99.4864 173.41 99.1564 174.99 98.8264 176.53H76.3564C76.0364 174.99 75.6964 173.41 75.3564 171.81H99.8264Z" fill="black"/>
<path fill-rule="evenodd" clip-rule="evenodd" d="M68.9214 28.7607C61.4665 28.7607 55.7734 33.6902 55.7734 39.3787C55.7734 45.0672 61.4665 49.9967 68.9214 49.9967C76.3764 49.9967 82.0694 45.0672 82.0694 39.3787C82.0694 33.6902 76.3764 28.7607 68.9214 28.7607ZM53.7734 39.3787C53.7734 32.2352 60.7484 26.7607 68.9214 26.7607C77.0945 26.7607 84.0694 32.2353 84.0694 39.3787C84.0694 46.5222 77.0945 51.9967 68.9214 51.9967C60.7484 51.9967 53.7734 46.5222 53.7734 39.3787Z" fill="white"/>
<path fill-rule="evenodd" clip-rule="evenodd" d="M106.027 28.7607C98.5729 28.7607 92.8789 33.6903 92.8789 39.3787C92.8789 45.0672 98.5729 49.9967 106.027 49.9967C113.482 49.9967 119.176 45.0672 119.176 39.3787C119.176 33.6903 113.482 28.7607 106.027 28.7607ZM90.8789 39.3787C90.8789 32.2352 97.8549 26.7607 106.027 26.7607C114.2 26.7607 121.176 32.2352 121.176 39.3787C121.176 46.5223 114.2 51.9967 106.027 51.9967C97.8549 51.9967 90.8789 46.5223 90.8789 39.3787Z" fill="white"/>
<path fill-rule="evenodd" clip-rule="evenodd" d="M83.7343 40.1257C83.7347 40.1254 83.735 40.1251 83.0693 39.3789C82.4036 38.6327 82.404 38.6323 82.4045 38.6319L82.4054 38.6311L82.4075 38.6292L82.413 38.6244L82.4284 38.611C82.4408 38.6003 82.4572 38.5864 82.4776 38.5694C82.5183 38.5356 82.575 38.4898 82.6467 38.4349C82.79 38.3252 82.9947 38.1781 83.2539 38.0164C83.7698 37.6946 84.5157 37.3063 85.4345 37.0461C87.3097 36.515 89.8507 36.5401 92.4922 38.5886L91.2665 40.1691C89.195 38.5626 87.331 38.5877 85.9794 38.9704C85.2849 39.1671 84.7119 39.4641 84.3124 39.7133C84.1138 39.8372 83.9616 39.9471 83.8624 40.023C83.8129 40.0609 83.777 40.0901 83.7554 40.108C83.7446 40.1169 83.7375 40.1231 83.734 40.126L83.7343 40.1257ZM83.734 40.126C83.733 40.1269 83.7323 40.1275 83.7319 40.1278L83.7327 40.1272L83.7337 40.1263L83.734 40.126Z" fill="white"/>
<path d="M100.37 119.5C92.5197 122.16 80.3397 126.13 74.7197 127.96L75.8597 115.92C78.3297 117.44 81.0897 118.49 84.1997 118.92C85.2597 119.07 86.3697 119.15 87.5197 119.15C87.5197 119.15 92.0797 119.15 97.7697 116.26C98.4797 115.9 99.2097 115.5 99.9497 115.04L100.37 119.5Z" fill="black"/>
</g>
</svg>
