<svg width="176" height="175" viewBox="0 0 176 175" fill="none" xmlns="http://www.w3.org/2000/svg">
<path fill-rule="evenodd" clip-rule="evenodd" d="M88 174C135.773 174 174.5 135.273 174.5 87.5C174.5 39.7274 135.773 1 88 1C40.2274 1 1.5 39.7274 1.5 87.5C1.5 135.273 40.2274 174 88 174ZM88 175C136.325 175 175.5 135.825 175.5 87.5C175.5 39.1751 136.325 0 88 0C39.6751 0 0.5 39.1751 0.5 87.5C0.5 135.825 39.6751 175 88 175Z" fill="black"/>
<mask id="mask0_604_702" style="mask-type:alpha" maskUnits="userSpaceOnUse" x="0" y="0" width="176" height="175">
<path d="M175.5 87.5C175.5 135.825 136.325 175 88 175C39.6751 175 0.5 135.825 0.5 87.5C0.5 39.1751 39.6751 0 88 0C136.325 0 175.5 39.1751 175.5 87.5Z" fill="#D9D9D9"/>
</mask>
<g mask="url(#mask0_604_702)">
<path d="M62.676 101.562C64.825 105.541 67.908 108.95 70.108 112.901C73.532 119.044 74.667 126.24 74.604 133.273C74.587 135.196 74.503 137.209 75.339 138.942C77.132 142.658 82.044 143.328 86.167 143.507C92.735 143.792 101.221 142.748 102.846 136.378C103.511 133.769 102.686 131.042 102.515 128.356C101.991 120.082 107.658 112.737 113.717 107.08C119.777 101.422 126.753 96.2723 130.297 88.7773C131.215 86.8353 131.863 84.4964 130.864 82.5954C128.702 78.4784 121.309 80.1504 119.024 76.0994C118.339 74.8844 118.313 73.4263 118.154 72.0403C116.729 59.6563 103.233 51.4474 90.774 51.8444C81.253 52.1484 63.779 57.1473 59.496 66.8083C55.554 75.6993 58.326 93.5033 62.676 101.562Z" fill="#FFE7FB"/>
<path d="M28.8514 196.225C28.7284 200.123 29.4004 204.653 32.7454 206.658C34.4264 207.666 36.4694 207.813 38.4264 207.928C73.9564 210.011 109.614 209.903 145.13 207.608C146.105 207.544 147.143 207.456 147.915 206.859C149.517 205.616 149.033 203.117 148.371 201.202C144.944 191.299 140.867 181.621 136.173 172.252C133.414 166.739 129.934 160.888 124.105 158.882C115.995 156.09 107.704 161.909 99.3294 163.762C82.6654 167.448 68.5314 149.583 53.3914 154.398C38.1244 159.252 29.3054 181.828 28.8514 196.225Z" fill="#C3C62B"/>
<path d="M68.0424 146.823C67.7314 147.323 67.4294 147.873 67.4624 148.46C67.5034 149.17 68.0174 149.752 68.5204 150.255C78.9154 160.656 96.8585 162.36 109.024 154.1C110.547 153.066 112.03 151.838 112.807 150.169C114.338 146.881 112.533 142.751 109.513 140.742C106.494 138.733 102.628 138.458 99.0245 138.858C95.4195 139.257 91.8984 140.26 88.2844 140.57C79.2534 141.347 73.3854 138.231 68.0424 146.823Z" fill="#6987FF"/>
<path d="M72.2707 95.6216C69.8387 95.6456 67.4087 95.6696 64.9777 95.6936C64.2787 95.6996 63.4867 95.7486 63.0387 96.2856C62.4877 96.9456 62.8137 98.0206 63.4887 98.5536C64.1627 99.0866 65.0587 99.2226 65.9117 99.3396C67.0067 99.4906 68.1027 99.6416 69.1987 99.7926C70.7427 100.006 72.4947 100.162 73.6847 99.1556C74.8757 98.1506 74.4287 95.6006 72.8747 95.7186" fill="#F03FA3"/>
<path d="M106.452 96.8413C104.021 96.8653 101.59 96.8893 99.1591 96.9123C98.4611 96.9193 97.6681 96.9693 97.2201 97.5053C96.6691 98.1653 96.9961 99.2393 97.6691 99.7733C98.3441 100.307 99.2411 100.443 100.092 100.56C101.188 100.71 102.284 100.861 103.379 101.012C104.924 101.225 106.676 101.382 107.867 100.375C109.057 99.3693 108.61 96.8193 107.055 96.9383" fill="#F03FA3"/>
<path d="M65.3965 76.9634C66.2095 76.2814 67.1615 75.8744 68.1295 75.5764C69.1045 75.2894 70.1205 75.1524 71.1375 75.1494C73.1595 75.1474 75.2725 75.6774 76.8615 77.0584C75.8005 77.1604 74.8645 77.1104 73.9185 77.1424L71.1415 77.1494C69.2895 77.1314 67.4635 77.1774 65.3965 76.9634Z" fill="black"/>
<path d="M72.9669 86.8854C72.9669 88.5004 72.1458 89.8094 71.1328 89.8094C70.1198 89.8094 69.2979 88.5004 69.2979 86.8854C69.2979 85.2714 70.1198 83.9624 71.1328 83.9624C72.1458 83.9624 72.9669 85.2714 72.9669 86.8854Z" fill="black"/>
<path d="M105.42 76.8221C103.356 77.0621 101.531 77.0371 99.678 77.0761L96.903 77.1041C95.956 77.0821 95.019 77.1451 93.959 77.0551C95.53 75.6551 97.637 75.0991 99.658 75.0771C100.676 75.0681 101.692 75.1931 102.67 75.4681C103.643 75.7541 104.6 76.1501 105.42 76.8221Z" fill="black"/>
<path d="M98.2979 86.8854C98.2979 88.5004 99.1198 89.8094 100.133 89.8094C101.146 89.8094 101.967 88.5004 101.967 86.8854C101.967 85.2714 101.146 83.9624 100.133 83.9624C99.1198 83.9624 98.2979 85.2714 98.2979 86.8854Z" fill="black"/>
<path fill-rule="evenodd" clip-rule="evenodd" d="M81.564 85.3532C81.5657 85.3611 81.5732 85.3954 81.5931 85.4387L82.5015 85.0205C82.5393 85.1027 82.5495 85.1836 82.5524 85.2069C82.5525 85.2077 82.5526 85.2084 82.5526 85.209C82.5575 85.2477 82.5603 85.2885 82.5621 85.327C82.5657 85.405 82.5663 85.5027 82.5648 85.614C82.5618 85.8381 82.5495 86.1415 82.5282 86.5029C82.4854 87.227 82.4054 88.1992 82.2852 89.2651C82.0506 91.3454 81.6576 93.8341 81.0724 95.5242C81.0737 95.5467 81.0755 95.5737 81.0781 95.6047C81.0873 95.7148 81.106 95.8744 81.1437 96.0643C81.2198 96.4474 81.3701 96.9357 81.6616 97.3892C81.9496 97.837 82.376 98.2529 83.0209 98.5089C83.6696 98.7663 84.5785 98.8772 85.8536 98.6447L86.033 99.6285C84.6212 99.8859 83.5148 99.7807 82.6521 99.4384C81.7855 99.0945 81.2043 98.5269 80.8205 97.93C80.4403 97.3387 80.2547 96.7211 80.1629 96.2593C80.1167 96.0268 80.0934 95.8293 80.0816 95.6879C80.0757 95.6171 80.0726 95.5599 80.071 95.5191C80.0702 95.4987 80.0698 95.4823 80.0696 95.4703L80.0694 95.4556L80.0693 95.4507L80.0693 95.4489L80.0693 95.4482C80.0693 95.4479 80.0693 95.4476 80.5693 95.4476L80.0693 95.4476L80.0693 95.3611L80.0984 95.2796C80.6594 93.7064 81.0533 91.265 81.2915 89.1531C81.4098 88.104 81.4883 87.1494 81.5299 86.444C81.5507 86.0907 81.5621 85.8037 81.5649 85.6003C81.5663 85.4977 81.5654 85.4224 81.5632 85.373C81.5626 85.3612 81.562 85.3519 81.5615 85.345L81.5608 85.3371C81.5607 85.3354 81.5606 85.3346 81.5606 85.3346L81.5606 85.3346L81.5612 85.339C81.5617 85.3416 81.5625 85.3465 81.564 85.3531L81.564 85.3532Z" fill="black"/>
<path fill-rule="evenodd" clip-rule="evenodd" d="M78.7322 106.603C78.7321 106.603 78.732 106.603 78.7656 106.104L78.7992 105.606L78.8043 105.606L78.8209 105.607L78.8875 105.611C78.9466 105.615 79.0345 105.62 79.1489 105.626C79.3777 105.639 79.7125 105.655 80.1343 105.672C80.9782 105.705 82.1698 105.738 83.559 105.737C86.3423 105.735 89.8987 105.597 93.0368 105.057L93.2064 106.042C89.9865 106.596 86.365 106.735 83.5597 106.737C82.1547 106.738 80.9494 106.705 80.095 106.671C79.6677 106.654 79.3279 106.637 79.0945 106.625C78.9778 106.618 78.8876 106.613 78.8265 106.609L78.7566 106.605L78.7386 106.604L78.7322 106.603Z" fill="black"/>
<path fill-rule="evenodd" clip-rule="evenodd" d="M74.6478 119.146L74.6475 119.149L73.2951 133.519H73.2853L72.7247 139.491L52.9657 151.882C42.5096 158.441 35.14 168.927 32.5186 180.985L27.4886 204.116L26.5114 203.903L31.5414 180.773C34.22 168.451 41.7505 157.737 52.4343 151.035L71.7752 138.906L72.3747 132.519H72.3848L73.6522 119.052L73.6525 119.05L73.6825 118.75L74.6775 118.849L74.6478 119.146Z" fill="black"/>
<path fill-rule="evenodd" clip-rule="evenodd" d="M98.2368 119.1L98.2582 119.282L98.748 124.542L100.115 138.905L119.456 151.034C130.14 157.737 137.67 168.451 140.349 180.773L145.379 203.903L144.402 204.115L139.372 180.985C136.75 168.927 129.381 158.441 118.925 151.882L99.1658 139.491L97.7525 124.636L97.263 119.381L97.2437 119.217L98.2368 119.1Z" fill="black"/>
<path fill-rule="evenodd" clip-rule="evenodd" d="M52.7648 67.8554C52.7681 67.8667 52.7782 67.8964 52.7992 67.9322L53.6617 67.4261C53.707 67.5033 53.7271 67.5808 53.7359 67.6167C53.7472 67.6633 53.7558 67.7126 53.7628 67.7597C53.7767 67.8544 53.7885 67.9726 53.7994 68.1069C53.8212 68.3767 53.842 68.7482 53.8665 69.2033C53.87 69.2692 53.8737 69.3371 53.8774 69.4068C53.9255 70.3038 53.9901 71.5095 54.1027 72.965C54.3454 76.1019 54.8106 80.3949 55.8101 85.2135C57.8109 94.8606 61.9426 106.564 70.6644 115.326C74.6097 119.28 79.499 122.651 85.5686 124.942C85.5994 124.936 85.6358 124.929 85.6777 124.921C85.8371 124.889 86.0753 124.836 86.3831 124.757C86.9988 124.599 87.8927 124.333 88.9911 123.904C91.1879 123.046 94.2025 121.538 97.4479 118.938L97.4502 118.936C98.7307 117.922 100.043 116.729 101.357 115.336L101.357 115.335C108.817 107.46 116.324 93.2369 117.171 67.6626L118.17 67.6957C117.317 93.461 109.744 107.935 102.084 116.023C100.738 117.449 99.3907 118.675 98.0717 119.72C94.7376 122.39 91.6327 123.946 89.3548 124.836C88.2158 125.28 87.2834 125.558 86.6322 125.726C86.3065 125.81 86.0512 125.866 85.8753 125.901C85.7874 125.919 85.7193 125.931 85.6723 125.94C85.6488 125.944 85.6305 125.947 85.6177 125.949L85.6025 125.951L85.5979 125.952L85.5964 125.952C85.5962 125.952 85.5955 125.952 85.5205 125.458L85.5964 125.952L85.467 125.972L85.3453 125.926C79.0738 123.581 74.0238 120.109 69.9565 116.032C61.0386 107.073 56.85 95.1516 54.8309 85.4166C53.8203 80.5441 53.3505 76.2066 53.1057 73.0421C52.9922 71.5744 52.927 70.3582 52.8789 69.461C52.8751 69.3911 52.8715 69.3231 52.8679 69.257C52.8432 68.7983 52.8231 68.4412 52.8026 68.1874C52.7923 68.0598 52.7826 67.9675 52.7735 67.9054C52.7693 67.8771 52.7662 67.8616 52.7648 67.8554ZM52.7644 67.8537C52.7645 67.8542 52.7646 67.8547 52.7648 67.8554C52.7631 67.8497 52.7631 67.8486 52.7644 67.8537Z" fill="black"/>
<path fill-rule="evenodd" clip-rule="evenodd" d="M54.9575 83.5067C54.9576 83.5068 54.9577 83.507 54.5942 83.8503C54.2307 84.1936 54.2308 84.1937 54.2308 84.1937L54.2307 84.1936L54.23 84.1929L54.2266 84.1893L54.212 84.174C54.1988 84.1603 54.1788 84.1395 54.1523 84.1123C54.0993 84.0579 54.0204 83.9779 53.9184 83.8771C53.7144 83.6754 53.4186 83.3909 53.0537 83.0621C52.322 82.4027 51.3215 81.5729 50.2326 80.875C49.1349 80.1713 47.9921 79.631 46.9697 79.4997C45.982 79.3729 45.1297 79.6247 44.4798 80.5011L44.4798 80.5012C44.1716 80.9167 43.9764 81.5519 43.931 82.3961C43.886 83.2336 43.9913 84.2332 44.2401 85.3318C44.7378 87.5285 45.7962 90.0606 47.2743 92.3734C48.7535 94.688 50.633 96.7517 52.7542 98.0442C54.8661 99.331 57.2013 99.8465 59.647 99.1153L59.9335 100.073C57.1602 100.903 54.5329 100.299 52.2339 98.8982C49.9443 97.5031 47.9647 95.3107 46.4317 92.9119C44.8975 90.5114 43.7905 87.8728 43.2649 85.5527C43.0021 84.3928 42.8812 83.2975 42.9325 82.3424C42.9834 81.394 43.2068 80.539 43.6766 79.9055M54.9575 83.5067L54.957 83.5063ZM54.957 83.5063L54.9557 83.5049ZM54.9557 83.5049L54.951 83.4999ZM54.951 83.4999L54.9337 83.4818ZM54.9337 83.4818C54.9187 83.4661 54.8967 83.4434 54.8683 83.4142ZM54.8683 83.4142C54.8113 83.3557 54.7281 83.2714 54.6214 83.166ZM54.6214 83.166C54.4083 82.9553 54.1012 82.66 53.7232 82.3193ZM53.7232 82.3193C52.969 81.6396 51.9237 80.7712 50.7723 80.0331ZM50.7723 80.0331C49.6298 79.3008 48.3379 78.6672 47.0971 78.5079ZM47.0971 78.5079C45.8215 78.3441 44.5817 78.6849 43.6766 79.9055Z" fill="black"/>
<path fill-rule="evenodd" clip-rule="evenodd" d="M49.1392 87.8926C49.1394 87.8926 49.1395 87.8926 49.0996 87.3942C49.0597 86.8958 49.0599 86.8957 49.0601 86.8957L49.0607 86.8957L49.0621 86.8956L49.0664 86.8952L49.0805 86.8942C49.0922 86.8935 49.1087 86.8924 49.1297 86.8913C49.1717 86.889 49.2317 86.8863 49.3079 86.8844C49.4603 86.8806 49.6778 86.8797 49.9454 86.8911C50.4796 86.9137 51.2188 86.9854 52.0408 87.1819C53.6807 87.5738 55.6947 88.475 57.0312 90.5218L56.1939 91.0685C55.0465 89.3113 53.304 88.512 51.8083 88.1545C51.0626 87.9762 50.3893 87.9108 49.903 87.8902C49.6603 87.8799 49.4655 87.8808 49.3331 87.8841C49.267 87.8858 49.2166 87.8881 49.1837 87.8898L49.1477 87.892L49.1401 87.8925L49.1392 87.8926Z" fill="black"/>
<path fill-rule="evenodd" clip-rule="evenodd" d="M52.6084 91.1769C52.6084 91.1765 52.6084 91.176 52.1084 91.172C51.6084 91.168 51.6084 91.1675 51.6084 91.167L51.6084 91.166L51.6085 91.164L51.6086 91.1593L51.6089 91.1479C51.6092 91.1395 51.6098 91.1293 51.6106 91.1175C51.6122 91.0938 51.6152 91.0635 51.6202 91.0276C51.6304 90.9557 51.6493 90.8603 51.6846 90.7491C51.7556 90.5256 51.8924 90.2401 52.1528 89.9583C52.6815 89.3862 53.6429 88.9075 55.3484 88.8701L55.3704 89.8699C53.8389 89.9035 53.1749 90.3258 52.8872 90.637C52.7395 90.7968 52.6705 90.9485 52.6377 91.0518C52.6211 91.104 52.6137 91.1444 52.6104 91.1674C52.6088 91.1789 52.6082 91.1859 52.6081 91.1876C52.6081 91.1885 52.6081 91.188 52.6082 91.1861L52.6083 91.1822L52.6083 91.1794L52.6084 91.1778L52.6084 91.1769Z" fill="black"/>
<path fill-rule="evenodd" clip-rule="evenodd" d="M116.423 84.1693C116.423 84.1692 116.423 84.1692 116.038 83.8505C115.652 83.5317 115.653 83.5316 115.653 83.5315L115.654 83.5295L115.659 83.5243L115.675 83.5051C115.689 83.4884 115.709 83.4643 115.736 83.4333C115.789 83.3712 115.866 83.2816 115.966 83.1694C116.165 82.9451 116.452 82.6303 116.807 82.2655C117.515 81.5377 118.501 80.6025 119.601 79.7905C120.694 78.9848 121.941 78.2679 123.169 78.0277C124.432 77.7808 125.691 78.0399 126.675 79.199C127.185 79.8002 127.464 80.6387 127.577 81.5817C127.69 82.5312 127.641 83.6321 127.455 84.8067C127.082 87.1561 126.151 89.8615 124.777 92.3575C123.405 94.8517 121.573 97.1691 119.38 98.7114C117.178 100.26 114.596 101.035 111.774 100.389L111.997 99.4141C114.486 99.9834 116.782 99.3159 118.805 97.8934C120.837 96.4646 122.577 94.2821 123.901 91.8754C125.224 89.4707 126.114 86.8746 126.467 84.65C126.644 83.5376 126.683 82.5332 126.584 81.7005C126.483 80.8612 126.247 80.2403 125.912 79.846M116.423 84.1693L116.424 84.1684ZM116.424 84.1684L116.427 84.1646ZM116.427 84.1646L116.44 84.1484ZM116.44 84.1484C116.453 84.1338 116.471 84.1118 116.496 84.0829ZM116.496 84.0829C116.545 84.0252 116.619 83.9402 116.714 83.8329ZM116.714 83.8329C116.904 83.6182 117.181 83.3149 117.523 82.9628ZM117.523 82.9628C118.21 82.2567 119.154 81.3631 120.195 80.5952ZM120.195 80.5952C121.244 79.821 122.349 79.207 123.361 79.0091ZM123.361 79.0091C124.339 78.8179 125.206 79.0136 125.912 79.846Z" fill="black"/>
<path fill-rule="evenodd" clip-rule="evenodd" d="M121.947 86.5294C121.947 86.5294 121.947 86.5294 121.94 87.0294C121.933 87.5293 121.933 87.5293 121.933 87.5293L121.932 87.5293L121.925 87.5293L121.889 87.5295C121.856 87.5299 121.805 87.5309 121.739 87.5336C121.607 87.539 121.412 87.5509 121.171 87.5771C120.687 87.6296 120.02 87.739 119.287 87.9659C117.819 88.4208 116.132 89.3328 115.103 91.1617L114.231 90.6711C115.431 88.5409 117.381 87.5095 118.991 87.0106C119.799 86.7606 120.532 86.6406 121.063 86.5829C121.329 86.554 121.546 86.5406 121.699 86.5344C121.775 86.5313 121.835 86.5301 121.877 86.5296C121.898 86.5293 121.914 86.5293 121.926 86.5293L121.94 86.5294L121.945 86.5294L121.946 86.5294L121.947 86.5294Z" fill="black"/>
<path fill-rule="evenodd" clip-rule="evenodd" d="M119.683 90.9585C119.683 90.9589 119.683 90.9594 119.184 90.9961C118.686 91.0328 118.686 91.0332 118.686 91.0337L118.686 91.0345L118.686 91.0361L118.686 91.0389L118.686 91.0428C118.687 91.0447 118.687 91.0452 118.687 91.0443C118.686 91.0426 118.685 91.0357 118.683 91.0243C118.678 91.0015 118.668 90.9618 118.648 90.9108C118.609 90.8099 118.53 90.6632 118.372 90.5135C118.065 90.2221 117.375 89.8444 115.845 89.9116L115.801 88.9126C117.505 88.8377 118.496 89.2521 119.061 89.7882C119.339 90.0522 119.494 90.3281 119.579 90.5465C119.622 90.6551 119.647 90.749 119.662 90.8201C119.669 90.8557 119.674 90.8857 119.677 90.9092C119.679 90.9209 119.68 90.9311 119.681 90.9395L119.682 90.9508L119.683 90.9554L119.683 90.9575L119.683 90.9585Z" fill="black"/>
<path fill-rule="evenodd" clip-rule="evenodd" d="M71.957 139.603C71.9567 139.602 71.9565 139.602 72.2471 139.195C72.5376 138.788 72.5375 138.788 72.5374 138.788L72.5375 138.788L72.5386 138.789L72.5443 138.793L72.5704 138.811C72.5941 138.828 72.6304 138.853 72.6791 138.885C72.7764 138.95 72.9228 139.045 73.1151 139.164C73.4997 139.402 74.0675 139.732 74.7933 140.101C76.2458 140.838 78.3253 141.723 80.8308 142.312C85.8345 143.489 92.5294 143.49 99.3553 138.784L99.9228 139.607C92.8107 144.51 85.8096 144.511 80.6018 143.285C78.0015 142.674 75.8464 141.757 74.3407 140.992C73.5874 140.61 72.9952 140.265 72.5897 140.015C72.3868 139.89 72.2306 139.788 72.124 139.717C72.0707 139.681 72.0298 139.653 72.0018 139.634L71.9694 139.611L71.9605 139.605L71.9578 139.603L71.957 139.603Z" fill="black"/>
<path fill-rule="evenodd" clip-rule="evenodd" d="M78.6927 151.18C78.4927 151.118 78.2009 151.02 77.8387 150.878C77.108 150.592 76.093 150.129 74.9671 149.423C72.7161 148.012 70.0285 145.636 68.2706 141.768L67.3602 142.182C69.2174 146.268 72.0603 148.781 74.436 150.271C75.6234 151.015 76.6959 151.505 77.4743 151.81C77.8637 151.962 78.18 152.068 78.4012 152.137C78.5117 152.171 78.5986 152.196 78.6588 152.213C78.689 152.221 78.7125 152.227 78.7291 152.232L78.7486 152.237L78.7544 152.238L78.7563 152.239C78.7565 152.239 78.7575 152.239 78.8764 151.753L78.7575 152.239L79.0689 152.315L85.8421 143.777L85.0587 143.155L78.6927 151.18Z" fill="black"/>
<path fill-rule="evenodd" clip-rule="evenodd" d="M93.4288 152.239C93.4285 152.239 93.4283 152.239 93.3093 151.753L93.4288 152.239L93.1168 152.315L86.3446 143.777L87.128 143.156L93.493 151.18C93.6931 151.118 93.9849 151.02 94.347 150.878C95.0777 150.592 96.0927 150.129 97.2186 149.423C99.4697 148.012 102.157 145.636 103.915 141.768L104.826 142.182C102.968 146.268 100.125 148.781 97.7498 150.271C96.5623 151.015 95.4898 151.505 94.7114 151.81C94.3221 151.962 94.0057 152.068 93.7846 152.137C93.674 152.171 93.5872 152.196 93.5269 152.213C93.4967 152.221 93.4732 152.227 93.4567 152.232L93.4371 152.237L93.4313 152.238L93.4288 152.239Z" fill="black"/>
<path fill-rule="evenodd" clip-rule="evenodd" d="M86.0099 160.963C86.0096 160.963 86.0093 160.963 85.9431 160.467L86.0099 160.963L85.9283 160.974L85.848 160.958C79.0157 159.635 73.2201 155.691 69.1493 152.107C67.1103 150.312 65.4949 148.599 64.3885 147.334C63.8351 146.702 63.4086 146.181 63.1196 145.817C62.9751 145.634 62.8649 145.492 62.7905 145.394C62.7533 145.345 62.7249 145.307 62.7057 145.281L62.6837 145.252L62.6778 145.244L62.6762 145.241C62.6761 145.241 62.6754 145.24 63.0791 144.945C63.4827 144.65 63.4827 144.65 63.4827 144.65L63.4838 144.652L63.4883 144.658L63.5075 144.684C63.5248 144.707 63.5512 144.742 63.5864 144.788C63.6569 144.881 63.7628 145.018 63.9028 145.195C64.1829 145.548 64.5992 146.056 65.1412 146.676C66.2254 147.915 67.8102 149.596 69.8101 151.356C73.8002 154.869 79.4059 158.669 85.9547 159.96C85.974 159.957 85.9966 159.954 86.0227 159.949C86.123 159.933 86.2733 159.907 86.4686 159.868C86.8594 159.791 87.4301 159.665 88.1415 159.47C89.5648 159.079 91.5484 158.413 93.7788 157.311C98.2384 155.108 103.678 151.17 107.608 144.22L108.478 144.712C104.428 151.876 98.8167 155.938 94.2216 158.208C91.9246 159.342 89.8797 160.03 88.4062 160.434C87.6693 160.636 87.0746 160.768 86.6621 160.849C86.4558 160.89 86.2949 160.918 86.1845 160.936C86.1293 160.945 86.0867 160.952 86.0573 160.956L86.0232 160.961L86.0137 160.962L86.0099 160.963Z" fill="black"/>
<path fill-rule="evenodd" clip-rule="evenodd" d="M86.0578 164.851C86.0575 164.851 86.0572 164.851 85.943 164.364L86.0578 164.851L85.953 164.875L85.848 164.855C79.0107 163.531 72.4856 159.088 67.6989 155.021C65.2988 152.982 63.3215 151.025 61.9439 149.578C61.2549 148.854 60.7154 148.257 60.3475 147.84C60.1636 147.632 60.0225 147.469 59.927 147.357C59.8793 147.301 59.8429 147.258 59.8184 147.229L59.7903 147.196L59.783 147.187L59.781 147.184C59.7809 147.184 59.7802 147.183 60.165 146.864L60.5499 146.545L60.5516 146.547L60.5578 146.554L60.5834 146.585C60.6065 146.612 60.6412 146.653 60.6873 146.707C60.7794 146.815 60.917 146.974 61.0972 147.179C61.4577 147.587 61.9887 148.175 62.6682 148.888C64.0276 150.317 65.9791 152.248 68.3464 154.259C73.0687 158.271 79.3892 162.552 85.9308 163.852C85.9537 163.846 85.9804 163.84 86.0107 163.832C86.1333 163.8 86.3158 163.752 86.5518 163.684C87.0238 163.55 87.7096 163.342 88.5586 163.048C90.2572 162.461 92.6061 161.531 95.2017 160.165C100.399 157.429 106.551 152.962 110.477 146.019L111.347 146.511C107.292 153.681 100.96 158.264 95.6675 161.049C93.0186 162.444 90.6217 163.393 88.8856 163.993C88.0173 164.294 87.3136 164.507 86.8254 164.646C86.5812 164.716 86.3909 164.766 86.2608 164.8C86.1957 164.817 86.1457 164.829 86.1115 164.838L86.0722 164.847L86.0616 164.85L86.0578 164.851Z" fill="black"/>
<path fill-rule="evenodd" clip-rule="evenodd" d="M85.4434 204.011V164.364H86.4434V204.011H85.4434Z" fill="black"/>
<path d="M104.371 57.7405C104.371 57.7405 82.1008 70.0945 67.8158 71.0405C53.5318 71.9865 55.2588 84.9965 55.2588 84.9965C55.2588 84.9965 44.0998 70.5815 45.4748 50.1745C46.8508 29.7675 88.0968 14.1745 108.633 30.9135C108.633 30.9135 136.982 43.6725 116.329 82.2765C116.329 82.2765 108.693 75.6265 104.371 57.7405Z" fill="black"/>
<path d="M96.9627 29.7264C97.1007 28.1034 97.4227 26.4964 97.9287 24.9494C99.4957 20.1584 104.502 17.6354 109.306 17.1134C110.929 16.9374 112.587 16.9404 114.176 17.3084C118.559 18.3224 121.938 22.0504 123.586 26.2364C124.71 29.0914 125.15 32.2144 124.845 35.2684C124.673 36.9904 124.258 38.7124 123.397 40.2144C122.71 41.4134 121.753 42.4454 120.677 43.3144C116.835 46.4204 110.869 47.5084 106.1 46.5184C102.923 45.8604 100.576 43.8864 99.1177 41.0274C97.3507 37.5624 96.6327 33.5974 96.9627 29.7264Z" fill="black"/>
<path d="M98.2508 124.589C92.3008 126.658 80.4108 130.559 72.8408 133.019L74.1508 119.099C77.4008 121.649 81.1608 123.828 85.5208 125.458C85.5208 125.458 91.1808 124.599 97.7608 119.328L98.2508 124.589Z" fill="black"/>
</g>
</svg>
